<mxfile host="app.diagrams.net" modified="2022-08-08T01:43:37.334Z" agent="5.0 (Windows NT 10.0; Win64; x64) AppleWebKit/537.36 (KHTML, like Gecko) Chrome/103.0.5060.134 Safari/537.36 Edg/103.0.1264.77" etag="Y06aPMQRICPpBBTOBHNb" version="20.2.3" type="github" pages="6">
  <diagram name="滑动窗口前" id="R3CAO67KIEpVhg1W_9IR">
    <mxGraphModel dx="846" dy="694" grid="0" gridSize="10" guides="1" tooltips="1" connect="1" arrows="1" fold="1" page="1" pageScale="1" pageWidth="827" pageHeight="1169" background="#001f18" math="0" shadow="0">
      <root>
        <mxCell id="iqwt4Rb6bYyusbBJHrde-0" />
        <mxCell id="iqwt4Rb6bYyusbBJHrde-1" parent="iqwt4Rb6bYyusbBJHrde-0" />
        <mxCell id="iqwt4Rb6bYyusbBJHrde-2" value="&lt;font style=&quot;font-size: 20px;&quot;&gt;0&lt;/font&gt;" style="whiteSpace=wrap;html=1;aspect=fixed;fillColor=none;strokeColor=#e6b45e;strokeWidth=2;fontColor=#FFFFFF;" parent="iqwt4Rb6bYyusbBJHrde-1" vertex="1">
          <mxGeometry x="210" y="220" width="30" height="30" as="geometry" />
        </mxCell>
        <mxCell id="iqwt4Rb6bYyusbBJHrde-3" value="&lt;span style=&quot;font-size: 20px;&quot;&gt;1&lt;/span&gt;" style="whiteSpace=wrap;html=1;aspect=fixed;fillColor=none;strokeColor=#e6b45e;strokeWidth=2;fontColor=#FFFFFF;" parent="iqwt4Rb6bYyusbBJHrde-1" vertex="1">
          <mxGeometry x="240" y="220" width="30" height="30" as="geometry" />
        </mxCell>
        <mxCell id="iqwt4Rb6bYyusbBJHrde-4" value="&lt;font style=&quot;font-size: 20px;&quot;&gt;2&lt;/font&gt;" style="whiteSpace=wrap;html=1;aspect=fixed;fillColor=none;strokeColor=#e6b45e;strokeWidth=2;fontColor=#FFFFFF;" parent="iqwt4Rb6bYyusbBJHrde-1" vertex="1">
          <mxGeometry x="270" y="220" width="30" height="30" as="geometry" />
        </mxCell>
        <mxCell id="iqwt4Rb6bYyusbBJHrde-5" value="&lt;font style=&quot;font-size: 20px;&quot;&gt;3&lt;/font&gt;" style="whiteSpace=wrap;html=1;aspect=fixed;fillColor=none;strokeColor=#e6b45e;strokeWidth=2;fontColor=#FFFFFF;" parent="iqwt4Rb6bYyusbBJHrde-1" vertex="1">
          <mxGeometry x="300" y="220" width="30" height="30" as="geometry" />
        </mxCell>
        <mxCell id="iqwt4Rb6bYyusbBJHrde-6" value="&lt;font style=&quot;font-size: 20px;&quot;&gt;4&lt;/font&gt;" style="whiteSpace=wrap;html=1;aspect=fixed;fillColor=none;strokeColor=#e6b45e;strokeWidth=2;fontColor=#FFFFFF;" parent="iqwt4Rb6bYyusbBJHrde-1" vertex="1">
          <mxGeometry x="330" y="220" width="30" height="30" as="geometry" />
        </mxCell>
        <mxCell id="iqwt4Rb6bYyusbBJHrde-7" value="&lt;font style=&quot;font-size: 20px;&quot;&gt;5&lt;/font&gt;" style="whiteSpace=wrap;html=1;aspect=fixed;fillColor=none;strokeColor=#e6b45e;strokeWidth=2;fontColor=#FFFFFF;" parent="iqwt4Rb6bYyusbBJHrde-1" vertex="1">
          <mxGeometry x="360" y="220" width="30" height="30" as="geometry" />
        </mxCell>
        <mxCell id="iqwt4Rb6bYyusbBJHrde-8" value="&lt;font style=&quot;font-size: 20px;&quot;&gt;6&lt;/font&gt;" style="whiteSpace=wrap;html=1;aspect=fixed;fillColor=none;strokeColor=#e6b45e;strokeWidth=2;fontColor=#FFFFFF;" parent="iqwt4Rb6bYyusbBJHrde-1" vertex="1">
          <mxGeometry x="390" y="220" width="30" height="30" as="geometry" />
        </mxCell>
        <mxCell id="iqwt4Rb6bYyusbBJHrde-9" value="&lt;font style=&quot;font-size: 20px;&quot;&gt;7&lt;/font&gt;" style="whiteSpace=wrap;html=1;aspect=fixed;fillColor=none;strokeColor=#e6b45e;strokeWidth=2;fontColor=#FFFFFF;" parent="iqwt4Rb6bYyusbBJHrde-1" vertex="1">
          <mxGeometry x="420" y="220" width="30" height="30" as="geometry" />
        </mxCell>
        <mxCell id="iqwt4Rb6bYyusbBJHrde-10" value="&lt;font style=&quot;font-size: 20px;&quot;&gt;8&lt;/font&gt;" style="whiteSpace=wrap;html=1;aspect=fixed;fillColor=none;strokeColor=#e6b45e;strokeWidth=2;fontColor=#FFFFFF;" parent="iqwt4Rb6bYyusbBJHrde-1" vertex="1">
          <mxGeometry x="450" y="220" width="30" height="30" as="geometry" />
        </mxCell>
        <mxCell id="iqwt4Rb6bYyusbBJHrde-11" value="&lt;font style=&quot;font-size: 20px;&quot;&gt;9&lt;/font&gt;" style="whiteSpace=wrap;html=1;aspect=fixed;fillColor=none;strokeColor=#e6b45e;strokeWidth=2;fontColor=#FFFFFF;" parent="iqwt4Rb6bYyusbBJHrde-1" vertex="1">
          <mxGeometry x="480" y="220" width="30" height="30" as="geometry" />
        </mxCell>
        <mxCell id="iqwt4Rb6bYyusbBJHrde-12" value="&lt;font style=&quot;font-size: 20px;&quot;&gt;10&lt;/font&gt;" style="whiteSpace=wrap;html=1;aspect=fixed;fillColor=none;strokeColor=#e6b45e;strokeWidth=2;fontColor=#FFFFFF;" parent="iqwt4Rb6bYyusbBJHrde-1" vertex="1">
          <mxGeometry x="510" y="220" width="30" height="30" as="geometry" />
        </mxCell>
        <mxCell id="iqwt4Rb6bYyusbBJHrde-13" value="" style="endArrow=none;html=1;rounded=0;fontSize=20;strokeWidth=2;fillColor=#ffcc99;strokeColor=#efae5a;entryX=0.5;entryY=1;entryDx=0;entryDy=0;" parent="iqwt4Rb6bYyusbBJHrde-1" target="iqwt4Rb6bYyusbBJHrde-14" edge="1">
          <mxGeometry width="50" height="50" relative="1" as="geometry">
            <mxPoint x="599.5" y="520" as="sourcePoint" />
            <mxPoint x="599.5" y="190" as="targetPoint" />
          </mxGeometry>
        </mxCell>
        <mxCell id="iqwt4Rb6bYyusbBJHrde-14" value="Sender" style="rounded=1;whiteSpace=wrap;html=1;fontSize=20;strokeColor=none;fillColor=none;strokeWidth=2;fontColor=#FFFFFF;" parent="iqwt4Rb6bYyusbBJHrde-1" vertex="1">
          <mxGeometry x="560" y="190" width="80" height="40" as="geometry" />
        </mxCell>
        <mxCell id="iqwt4Rb6bYyusbBJHrde-15" value="Receiver" style="rounded=1;whiteSpace=wrap;html=1;fontSize=20;strokeColor=none;fillColor=none;strokeWidth=2;fontColor=#FFFFFF;" parent="iqwt4Rb6bYyusbBJHrde-1" vertex="1">
          <mxGeometry x="720" y="190" width="80" height="40" as="geometry" />
        </mxCell>
        <mxCell id="iqwt4Rb6bYyusbBJHrde-16" value="" style="endArrow=none;html=1;rounded=0;fontSize=20;strokeWidth=2;strokeColor=#02db21;" parent="iqwt4Rb6bYyusbBJHrde-1" edge="1">
          <mxGeometry width="50" height="50" relative="1" as="geometry">
            <mxPoint x="760" y="520" as="sourcePoint" />
            <mxPoint x="760" y="230" as="targetPoint" />
          </mxGeometry>
        </mxCell>
        <mxCell id="iqwt4Rb6bYyusbBJHrde-17" value="" style="endArrow=classic;html=1;rounded=0;fontSize=20;strokeWidth=2;fillColor=#b1ddf0;strokeColor=#52d1e6;fontColor=#FFFFFF;" parent="iqwt4Rb6bYyusbBJHrde-1" edge="1">
          <mxGeometry width="50" height="50" relative="1" as="geometry">
            <mxPoint x="600" y="250" as="sourcePoint" />
            <mxPoint x="760" y="280" as="targetPoint" />
          </mxGeometry>
        </mxCell>
        <mxCell id="iqwt4Rb6bYyusbBJHrde-18" value="&lt;font style=&quot;font-size: 20px;&quot;&gt;0&lt;/font&gt;" style="whiteSpace=wrap;html=1;aspect=fixed;fillColor=none;strokeColor=none;strokeWidth=2;fontColor=#FFFFFF;" parent="iqwt4Rb6bYyusbBJHrde-1" vertex="1">
          <mxGeometry x="580" y="240" width="20" height="20" as="geometry" />
        </mxCell>
        <mxCell id="iqwt4Rb6bYyusbBJHrde-19" value="" style="endArrow=classic;html=1;rounded=0;fontSize=20;strokeWidth=2;fillColor=#b1ddf0;strokeColor=#52d1e6;fontColor=#FFFFFF;" parent="iqwt4Rb6bYyusbBJHrde-1" edge="1">
          <mxGeometry width="50" height="50" relative="1" as="geometry">
            <mxPoint x="600" y="280" as="sourcePoint" />
            <mxPoint x="760" y="310" as="targetPoint" />
          </mxGeometry>
        </mxCell>
        <mxCell id="iqwt4Rb6bYyusbBJHrde-20" value="" style="endArrow=classic;html=1;rounded=0;fontSize=20;strokeWidth=2;fillColor=#b1ddf0;strokeColor=#52d1e6;fontColor=#FFFFFF;" parent="iqwt4Rb6bYyusbBJHrde-1" edge="1">
          <mxGeometry width="50" height="50" relative="1" as="geometry">
            <mxPoint x="600" y="310" as="sourcePoint" />
            <mxPoint x="760" y="340" as="targetPoint" />
          </mxGeometry>
        </mxCell>
        <mxCell id="iqwt4Rb6bYyusbBJHrde-21" value="" style="endArrow=classic;html=1;rounded=0;fontSize=20;strokeWidth=2;fillColor=#b1ddf0;strokeColor=#52d1e6;fontColor=#FFFFFF;" parent="iqwt4Rb6bYyusbBJHrde-1" edge="1">
          <mxGeometry width="50" height="50" relative="1" as="geometry">
            <mxPoint x="600" y="340" as="sourcePoint" />
            <mxPoint x="760" y="370" as="targetPoint" />
          </mxGeometry>
        </mxCell>
        <mxCell id="iqwt4Rb6bYyusbBJHrde-22" value="" style="endArrow=classic;html=1;rounded=0;fontSize=20;strokeWidth=2;fillColor=#b1ddf0;strokeColor=#52d1e6;fontColor=#FFFFFF;" parent="iqwt4Rb6bYyusbBJHrde-1" edge="1">
          <mxGeometry width="50" height="50" relative="1" as="geometry">
            <mxPoint x="760" y="280" as="sourcePoint" />
            <mxPoint x="600" y="390" as="targetPoint" />
          </mxGeometry>
        </mxCell>
        <mxCell id="iqwt4Rb6bYyusbBJHrde-23" value="" style="endArrow=classic;html=1;rounded=0;fontSize=20;strokeWidth=2;fillColor=#b1ddf0;strokeColor=#52d1e6;fontColor=#FFFFFF;" parent="iqwt4Rb6bYyusbBJHrde-1" edge="1">
          <mxGeometry width="50" height="50" relative="1" as="geometry">
            <mxPoint x="760" y="310" as="sourcePoint" />
            <mxPoint x="600" y="420" as="targetPoint" />
          </mxGeometry>
        </mxCell>
        <mxCell id="iqwt4Rb6bYyusbBJHrde-24" value="" style="endArrow=classic;html=1;rounded=0;fontSize=20;strokeWidth=2;fillColor=#b1ddf0;strokeColor=#52d1e6;fontColor=#FFFFFF;" parent="iqwt4Rb6bYyusbBJHrde-1" edge="1">
          <mxGeometry width="50" height="50" relative="1" as="geometry">
            <mxPoint x="760" y="310" as="sourcePoint" />
            <mxPoint x="600" y="420" as="targetPoint" />
          </mxGeometry>
        </mxCell>
        <mxCell id="iqwt4Rb6bYyusbBJHrde-25" value="&lt;font style=&quot;font-size: 20px;&quot;&gt;1&lt;/font&gt;" style="whiteSpace=wrap;html=1;aspect=fixed;fillColor=none;strokeColor=none;strokeWidth=2;fontColor=#FFFFFF;" parent="iqwt4Rb6bYyusbBJHrde-1" vertex="1">
          <mxGeometry x="580" y="270" width="20" height="20" as="geometry" />
        </mxCell>
        <mxCell id="iqwt4Rb6bYyusbBJHrde-26" value="&lt;font style=&quot;font-size: 20px;&quot;&gt;2&lt;/font&gt;" style="whiteSpace=wrap;html=1;aspect=fixed;fillColor=none;strokeColor=none;strokeWidth=2;fontColor=#FFFFFF;" parent="iqwt4Rb6bYyusbBJHrde-1" vertex="1">
          <mxGeometry x="580" y="300" width="20" height="20" as="geometry" />
        </mxCell>
        <mxCell id="iqwt4Rb6bYyusbBJHrde-27" value="&lt;font style=&quot;font-size: 20px;&quot;&gt;3&lt;/font&gt;" style="whiteSpace=wrap;html=1;aspect=fixed;fillColor=none;strokeColor=none;strokeWidth=2;fontColor=#FFFFFF;" parent="iqwt4Rb6bYyusbBJHrde-1" vertex="1">
          <mxGeometry x="580" y="330" width="20" height="20" as="geometry" />
        </mxCell>
        <mxCell id="iqwt4Rb6bYyusbBJHrde-28" value="&lt;font style=&quot;font-size: 20px;&quot;&gt;0&lt;/font&gt;" style="whiteSpace=wrap;html=1;aspect=fixed;fillColor=none;strokeColor=none;strokeWidth=2;fontColor=#FFFFFF;" parent="iqwt4Rb6bYyusbBJHrde-1" vertex="1">
          <mxGeometry x="760" y="270" width="20" height="20" as="geometry" />
        </mxCell>
        <mxCell id="iqwt4Rb6bYyusbBJHrde-29" value="&lt;font style=&quot;font-size: 20px;&quot;&gt;1&lt;/font&gt;" style="whiteSpace=wrap;html=1;aspect=fixed;fillColor=none;strokeColor=none;strokeWidth=2;fontColor=#FFFFFF;" parent="iqwt4Rb6bYyusbBJHrde-1" vertex="1">
          <mxGeometry x="760" y="300" width="20" height="20" as="geometry" />
        </mxCell>
        <mxCell id="iqwt4Rb6bYyusbBJHrde-30" value="&lt;font style=&quot;font-size: 20px;&quot;&gt;2&lt;/font&gt;" style="whiteSpace=wrap;html=1;aspect=fixed;fillColor=none;strokeColor=none;strokeWidth=2;fontColor=#FFFFFF;" parent="iqwt4Rb6bYyusbBJHrde-1" vertex="1">
          <mxGeometry x="760" y="330" width="20" height="20" as="geometry" />
        </mxCell>
        <mxCell id="iqwt4Rb6bYyusbBJHrde-37" value="" style="endArrow=classic;html=1;rounded=0;fontSize=20;strokeWidth=2;fillColor=#b1ddf0;strokeColor=#52d1e6;fontColor=#FFFFFF;" parent="iqwt4Rb6bYyusbBJHrde-1" edge="1">
          <mxGeometry width="50" height="50" relative="1" as="geometry">
            <mxPoint x="760" y="350" as="sourcePoint" />
            <mxPoint x="600" y="460" as="targetPoint" />
          </mxGeometry>
        </mxCell>
        <mxCell id="iqwt4Rb6bYyusbBJHrde-38" value="" style="shape=flexArrow;endArrow=classic;html=1;rounded=0;fontSize=20;strokeColor=none;strokeWidth=2;fillColor=#b7d7a9;" parent="iqwt4Rb6bYyusbBJHrde-1" edge="1">
          <mxGeometry width="50" height="50" relative="1" as="geometry">
            <mxPoint x="510" y="360" as="sourcePoint" />
            <mxPoint x="509" y="290" as="targetPoint" />
          </mxGeometry>
        </mxCell>
        <mxCell id="iqwt4Rb6bYyusbBJHrde-39" value="" style="shape=flexArrow;endArrow=classic;html=1;rounded=0;fontSize=20;strokeColor=none;strokeWidth=2;fillColor=#b7d7a9;" parent="iqwt4Rb6bYyusbBJHrde-1" edge="1">
          <mxGeometry width="50" height="50" relative="1" as="geometry">
            <mxPoint x="361" y="360" as="sourcePoint" />
            <mxPoint x="360" y="290" as="targetPoint" />
          </mxGeometry>
        </mxCell>
        <mxCell id="iqwt4Rb6bYyusbBJHrde-40" value="" style="shape=flexArrow;endArrow=classic;html=1;rounded=0;fontSize=20;strokeColor=none;strokeWidth=2;fillColor=#b7d7a9;" parent="iqwt4Rb6bYyusbBJHrde-1" edge="1">
          <mxGeometry width="50" height="50" relative="1" as="geometry">
            <mxPoint x="221" y="360" as="sourcePoint" />
            <mxPoint x="220" y="290" as="targetPoint" />
          </mxGeometry>
        </mxCell>
        <mxCell id="iqwt4Rb6bYyusbBJHrde-41" value="" style="rounded=0;whiteSpace=wrap;html=1;fontSize=20;strokeColor=#2defed;strokeWidth=2;fillColor=none;" parent="iqwt4Rb6bYyusbBJHrde-1" vertex="1">
          <mxGeometry x="210" y="210" width="120" height="50" as="geometry" />
        </mxCell>
        <mxCell id="iqwt4Rb6bYyusbBJHrde-42" value="Sliding Window" style="rounded=0;whiteSpace=wrap;html=1;fontSize=20;strokeColor=none;strokeWidth=2;fillColor=none;fontColor=#29f8ff;" parent="iqwt4Rb6bYyusbBJHrde-1" vertex="1">
          <mxGeometry x="290" y="260" width="140" height="30" as="geometry" />
        </mxCell>
        <mxCell id="iqwt4Rb6bYyusbBJHrde-43" value="Already Send&lt;br&gt;and&lt;br&gt;Acknowledged" style="rounded=0;whiteSpace=wrap;html=1;fontSize=20;strokeColor=none;strokeWidth=2;fillColor=none;fontColor=#30ce24;" parent="iqwt4Rb6bYyusbBJHrde-1" vertex="1">
          <mxGeometry x="160" y="383" width="140" height="60" as="geometry" />
        </mxCell>
        <mxCell id="iqwt4Rb6bYyusbBJHrde-44" value="Send but not acknowledge" style="rounded=0;whiteSpace=wrap;html=1;fontSize=20;strokeColor=none;strokeWidth=2;fillColor=none;fontColor=#C2BE7A;" parent="iqwt4Rb6bYyusbBJHrde-1" vertex="1">
          <mxGeometry x="305" y="374" width="140" height="60" as="geometry" />
        </mxCell>
        <mxCell id="iqwt4Rb6bYyusbBJHrde-45" value="Not Yet&lt;br&gt;Sent" style="rounded=0;whiteSpace=wrap;html=1;fontSize=20;strokeColor=none;strokeWidth=2;fillColor=none;fontColor=#C9726A;" parent="iqwt4Rb6bYyusbBJHrde-1" vertex="1">
          <mxGeometry x="440" y="374" width="140" height="60" as="geometry" />
        </mxCell>
      </root>
    </mxGraphModel>
  </diagram>
  <diagram id="6SGZ16sy-9ofrh-wiF80" name="滑动窗口">
    <mxGraphModel dx="846" dy="694" grid="0" gridSize="10" guides="1" tooltips="1" connect="1" arrows="1" fold="1" page="1" pageScale="1" pageWidth="827" pageHeight="1169" background="#001f18" math="0" shadow="0">
      <root>
        <mxCell id="0" />
        <mxCell id="1" parent="0" />
        <mxCell id="gOc0IUJmjJ7Nf5tOcqPv-1" value="&lt;font style=&quot;font-size: 20px;&quot;&gt;0&lt;/font&gt;" style="whiteSpace=wrap;html=1;aspect=fixed;fillColor=none;strokeColor=#e6b45e;strokeWidth=2;fontColor=#FFFFFF;" parent="1" vertex="1">
          <mxGeometry x="210" y="220" width="30" height="30" as="geometry" />
        </mxCell>
        <mxCell id="gOc0IUJmjJ7Nf5tOcqPv-2" value="&lt;span style=&quot;font-size: 20px;&quot;&gt;1&lt;/span&gt;" style="whiteSpace=wrap;html=1;aspect=fixed;fillColor=none;strokeColor=#e6b45e;strokeWidth=2;fontColor=#FFFFFF;" parent="1" vertex="1">
          <mxGeometry x="240" y="220" width="30" height="30" as="geometry" />
        </mxCell>
        <mxCell id="gOc0IUJmjJ7Nf5tOcqPv-3" value="&lt;font style=&quot;font-size: 20px;&quot;&gt;2&lt;/font&gt;" style="whiteSpace=wrap;html=1;aspect=fixed;fillColor=none;strokeColor=#e6b45e;strokeWidth=2;fontColor=#FFFFFF;" parent="1" vertex="1">
          <mxGeometry x="270" y="220" width="30" height="30" as="geometry" />
        </mxCell>
        <mxCell id="gOc0IUJmjJ7Nf5tOcqPv-4" value="&lt;font style=&quot;font-size: 20px;&quot;&gt;3&lt;/font&gt;" style="whiteSpace=wrap;html=1;aspect=fixed;fillColor=none;strokeColor=#e6b45e;strokeWidth=2;fontColor=#FFFFFF;" parent="1" vertex="1">
          <mxGeometry x="300" y="220" width="30" height="30" as="geometry" />
        </mxCell>
        <mxCell id="gOc0IUJmjJ7Nf5tOcqPv-5" value="&lt;font style=&quot;font-size: 20px;&quot;&gt;4&lt;/font&gt;" style="whiteSpace=wrap;html=1;aspect=fixed;fillColor=none;strokeColor=#e6b45e;strokeWidth=2;fontColor=#FFFFFF;" parent="1" vertex="1">
          <mxGeometry x="330" y="220" width="30" height="30" as="geometry" />
        </mxCell>
        <mxCell id="gOc0IUJmjJ7Nf5tOcqPv-6" value="&lt;font style=&quot;font-size: 20px;&quot;&gt;5&lt;/font&gt;" style="whiteSpace=wrap;html=1;aspect=fixed;fillColor=none;strokeColor=#e6b45e;strokeWidth=2;fontColor=#FFFFFF;" parent="1" vertex="1">
          <mxGeometry x="360" y="220" width="30" height="30" as="geometry" />
        </mxCell>
        <mxCell id="gOc0IUJmjJ7Nf5tOcqPv-7" value="&lt;font style=&quot;font-size: 20px;&quot;&gt;6&lt;/font&gt;" style="whiteSpace=wrap;html=1;aspect=fixed;fillColor=none;strokeColor=#e6b45e;strokeWidth=2;fontColor=#FFFFFF;" parent="1" vertex="1">
          <mxGeometry x="390" y="220" width="30" height="30" as="geometry" />
        </mxCell>
        <mxCell id="gOc0IUJmjJ7Nf5tOcqPv-8" value="&lt;font style=&quot;font-size: 20px;&quot;&gt;7&lt;/font&gt;" style="whiteSpace=wrap;html=1;aspect=fixed;fillColor=none;strokeColor=#e6b45e;strokeWidth=2;fontColor=#FFFFFF;" parent="1" vertex="1">
          <mxGeometry x="420" y="220" width="30" height="30" as="geometry" />
        </mxCell>
        <mxCell id="gOc0IUJmjJ7Nf5tOcqPv-9" value="&lt;font style=&quot;font-size: 20px;&quot;&gt;8&lt;/font&gt;" style="whiteSpace=wrap;html=1;aspect=fixed;fillColor=none;strokeColor=#e6b45e;strokeWidth=2;fontColor=#FFFFFF;" parent="1" vertex="1">
          <mxGeometry x="450" y="220" width="30" height="30" as="geometry" />
        </mxCell>
        <mxCell id="gOc0IUJmjJ7Nf5tOcqPv-10" value="&lt;font style=&quot;font-size: 20px;&quot;&gt;9&lt;/font&gt;" style="whiteSpace=wrap;html=1;aspect=fixed;fillColor=none;strokeColor=#e6b45e;strokeWidth=2;fontColor=#FFFFFF;" parent="1" vertex="1">
          <mxGeometry x="480" y="220" width="30" height="30" as="geometry" />
        </mxCell>
        <mxCell id="gOc0IUJmjJ7Nf5tOcqPv-11" value="&lt;font style=&quot;font-size: 20px;&quot;&gt;10&lt;/font&gt;" style="whiteSpace=wrap;html=1;aspect=fixed;fillColor=none;strokeColor=#e6b45e;strokeWidth=2;fontColor=#FFFFFF;" parent="1" vertex="1">
          <mxGeometry x="510" y="220" width="30" height="30" as="geometry" />
        </mxCell>
        <mxCell id="gOc0IUJmjJ7Nf5tOcqPv-12" value="" style="endArrow=none;html=1;rounded=0;fontSize=20;strokeWidth=2;fillColor=#ffcc99;strokeColor=#efae5a;entryX=0.5;entryY=1;entryDx=0;entryDy=0;" parent="1" target="gOc0IUJmjJ7Nf5tOcqPv-13" edge="1">
          <mxGeometry width="50" height="50" relative="1" as="geometry">
            <mxPoint x="599.5" y="520" as="sourcePoint" />
            <mxPoint x="599.5" y="190" as="targetPoint" />
          </mxGeometry>
        </mxCell>
        <mxCell id="gOc0IUJmjJ7Nf5tOcqPv-13" value="Sender" style="rounded=1;whiteSpace=wrap;html=1;fontSize=20;strokeColor=none;fillColor=none;strokeWidth=2;fontColor=#FFFFFF;" parent="1" vertex="1">
          <mxGeometry x="560" y="190" width="80" height="40" as="geometry" />
        </mxCell>
        <mxCell id="gOc0IUJmjJ7Nf5tOcqPv-14" value="Receiver" style="rounded=1;whiteSpace=wrap;html=1;fontSize=20;strokeColor=none;fillColor=none;strokeWidth=2;fontColor=#FFFFFF;" parent="1" vertex="1">
          <mxGeometry x="720" y="190" width="80" height="40" as="geometry" />
        </mxCell>
        <mxCell id="gOc0IUJmjJ7Nf5tOcqPv-15" value="" style="endArrow=none;html=1;rounded=0;fontSize=20;strokeWidth=2;strokeColor=#02db21;" parent="1" edge="1">
          <mxGeometry width="50" height="50" relative="1" as="geometry">
            <mxPoint x="760" y="520" as="sourcePoint" />
            <mxPoint x="760" y="230" as="targetPoint" />
          </mxGeometry>
        </mxCell>
        <mxCell id="gOc0IUJmjJ7Nf5tOcqPv-16" value="" style="endArrow=classic;html=1;rounded=0;fontSize=20;strokeWidth=2;fillColor=#b1ddf0;strokeColor=#52d1e6;fontColor=#FFFFFF;" parent="1" edge="1">
          <mxGeometry width="50" height="50" relative="1" as="geometry">
            <mxPoint x="600" y="250" as="sourcePoint" />
            <mxPoint x="760" y="280" as="targetPoint" />
          </mxGeometry>
        </mxCell>
        <mxCell id="gOc0IUJmjJ7Nf5tOcqPv-20" value="&lt;font style=&quot;font-size: 20px;&quot;&gt;0&lt;/font&gt;" style="whiteSpace=wrap;html=1;aspect=fixed;fillColor=none;strokeColor=none;strokeWidth=2;fontColor=#FFFFFF;" parent="1" vertex="1">
          <mxGeometry x="580" y="240" width="20" height="20" as="geometry" />
        </mxCell>
        <mxCell id="gOc0IUJmjJ7Nf5tOcqPv-21" value="" style="endArrow=classic;html=1;rounded=0;fontSize=20;strokeWidth=2;fillColor=#b1ddf0;strokeColor=#52d1e6;fontColor=#FFFFFF;" parent="1" edge="1">
          <mxGeometry width="50" height="50" relative="1" as="geometry">
            <mxPoint x="600" y="280" as="sourcePoint" />
            <mxPoint x="760" y="310" as="targetPoint" />
          </mxGeometry>
        </mxCell>
        <mxCell id="gOc0IUJmjJ7Nf5tOcqPv-22" value="" style="endArrow=classic;html=1;rounded=0;fontSize=20;strokeWidth=2;fillColor=#b1ddf0;strokeColor=#52d1e6;fontColor=#FFFFFF;" parent="1" edge="1">
          <mxGeometry width="50" height="50" relative="1" as="geometry">
            <mxPoint x="600" y="310" as="sourcePoint" />
            <mxPoint x="760" y="340" as="targetPoint" />
          </mxGeometry>
        </mxCell>
        <mxCell id="gOc0IUJmjJ7Nf5tOcqPv-23" value="" style="endArrow=classic;html=1;rounded=0;fontSize=20;strokeWidth=2;fillColor=#b1ddf0;strokeColor=#52d1e6;fontColor=#FFFFFF;" parent="1" edge="1">
          <mxGeometry width="50" height="50" relative="1" as="geometry">
            <mxPoint x="600" y="340" as="sourcePoint" />
            <mxPoint x="760" y="370" as="targetPoint" />
          </mxGeometry>
        </mxCell>
        <mxCell id="gOc0IUJmjJ7Nf5tOcqPv-25" value="" style="endArrow=classic;html=1;rounded=0;fontSize=20;strokeWidth=2;fillColor=#b1ddf0;strokeColor=#52d1e6;fontColor=#FFFFFF;" parent="1" edge="1">
          <mxGeometry width="50" height="50" relative="1" as="geometry">
            <mxPoint x="760" y="280" as="sourcePoint" />
            <mxPoint x="600" y="390" as="targetPoint" />
          </mxGeometry>
        </mxCell>
        <mxCell id="gOc0IUJmjJ7Nf5tOcqPv-26" value="" style="endArrow=classic;html=1;rounded=0;fontSize=20;strokeWidth=2;fillColor=#b1ddf0;strokeColor=#52d1e6;fontColor=#FFFFFF;" parent="1" edge="1">
          <mxGeometry width="50" height="50" relative="1" as="geometry">
            <mxPoint x="760" y="310" as="sourcePoint" />
            <mxPoint x="600" y="420" as="targetPoint" />
          </mxGeometry>
        </mxCell>
        <mxCell id="gOc0IUJmjJ7Nf5tOcqPv-27" value="" style="endArrow=classic;html=1;rounded=0;fontSize=20;strokeWidth=2;fillColor=#b1ddf0;strokeColor=#52d1e6;fontColor=#FFFFFF;" parent="1" edge="1">
          <mxGeometry width="50" height="50" relative="1" as="geometry">
            <mxPoint x="760" y="310" as="sourcePoint" />
            <mxPoint x="600" y="420" as="targetPoint" />
          </mxGeometry>
        </mxCell>
        <mxCell id="gOc0IUJmjJ7Nf5tOcqPv-29" value="&lt;font style=&quot;font-size: 20px;&quot;&gt;1&lt;/font&gt;" style="whiteSpace=wrap;html=1;aspect=fixed;fillColor=none;strokeColor=none;strokeWidth=2;fontColor=#FFFFFF;" parent="1" vertex="1">
          <mxGeometry x="580" y="270" width="20" height="20" as="geometry" />
        </mxCell>
        <mxCell id="gOc0IUJmjJ7Nf5tOcqPv-30" value="&lt;font style=&quot;font-size: 20px;&quot;&gt;2&lt;/font&gt;" style="whiteSpace=wrap;html=1;aspect=fixed;fillColor=none;strokeColor=none;strokeWidth=2;fontColor=#FFFFFF;" parent="1" vertex="1">
          <mxGeometry x="580" y="300" width="20" height="20" as="geometry" />
        </mxCell>
        <mxCell id="gOc0IUJmjJ7Nf5tOcqPv-31" value="&lt;font style=&quot;font-size: 20px;&quot;&gt;3&lt;/font&gt;" style="whiteSpace=wrap;html=1;aspect=fixed;fillColor=none;strokeColor=none;strokeWidth=2;fontColor=#FFFFFF;" parent="1" vertex="1">
          <mxGeometry x="580" y="330" width="20" height="20" as="geometry" />
        </mxCell>
        <mxCell id="gOc0IUJmjJ7Nf5tOcqPv-34" value="&lt;font style=&quot;font-size: 20px;&quot;&gt;0&lt;/font&gt;" style="whiteSpace=wrap;html=1;aspect=fixed;fillColor=none;strokeColor=none;strokeWidth=2;fontColor=#FFFFFF;" parent="1" vertex="1">
          <mxGeometry x="760" y="270" width="20" height="20" as="geometry" />
        </mxCell>
        <mxCell id="gOc0IUJmjJ7Nf5tOcqPv-35" value="&lt;font style=&quot;font-size: 20px;&quot;&gt;1&lt;/font&gt;" style="whiteSpace=wrap;html=1;aspect=fixed;fillColor=none;strokeColor=none;strokeWidth=2;fontColor=#FFFFFF;" parent="1" vertex="1">
          <mxGeometry x="760" y="300" width="20" height="20" as="geometry" />
        </mxCell>
        <mxCell id="gOc0IUJmjJ7Nf5tOcqPv-36" value="&lt;font style=&quot;font-size: 20px;&quot;&gt;2&lt;/font&gt;" style="whiteSpace=wrap;html=1;aspect=fixed;fillColor=none;strokeColor=none;strokeWidth=2;fontColor=#FFFFFF;" parent="1" vertex="1">
          <mxGeometry x="760" y="330" width="20" height="20" as="geometry" />
        </mxCell>
        <mxCell id="gOc0IUJmjJ7Nf5tOcqPv-37" value="" style="endArrow=classic;html=1;rounded=0;fontSize=20;strokeWidth=2;fillColor=#b1ddf0;strokeColor=#52d1e6;fontColor=#FFFFFF;" parent="1" edge="1">
          <mxGeometry width="50" height="50" relative="1" as="geometry">
            <mxPoint x="600" y="390" as="sourcePoint" />
            <mxPoint x="760" y="420" as="targetPoint" />
          </mxGeometry>
        </mxCell>
        <mxCell id="gOc0IUJmjJ7Nf5tOcqPv-38" value="" style="endArrow=classic;html=1;rounded=0;fontSize=20;strokeWidth=2;fillColor=#b1ddf0;strokeColor=#52d1e6;fontColor=#FFFFFF;" parent="1" edge="1">
          <mxGeometry width="50" height="50" relative="1" as="geometry">
            <mxPoint x="600" y="420" as="sourcePoint" />
            <mxPoint x="760" y="450" as="targetPoint" />
          </mxGeometry>
        </mxCell>
        <mxCell id="gOc0IUJmjJ7Nf5tOcqPv-39" value="" style="endArrow=classic;html=1;rounded=0;fontSize=20;strokeWidth=2;fillColor=#b1ddf0;strokeColor=#52d1e6;fontColor=#FFFFFF;" parent="1" edge="1">
          <mxGeometry width="50" height="50" relative="1" as="geometry">
            <mxPoint x="600" y="460" as="sourcePoint" />
            <mxPoint x="760" y="490" as="targetPoint" />
          </mxGeometry>
        </mxCell>
        <mxCell id="gOc0IUJmjJ7Nf5tOcqPv-41" value="&lt;font style=&quot;font-size: 20px;&quot;&gt;5&lt;/font&gt;" style="whiteSpace=wrap;html=1;aspect=fixed;fillColor=none;strokeColor=none;strokeWidth=2;fontColor=#FFFFFF;" parent="1" vertex="1">
          <mxGeometry x="580" y="410" width="20" height="20" as="geometry" />
        </mxCell>
        <mxCell id="gOc0IUJmjJ7Nf5tOcqPv-42" value="&lt;font style=&quot;font-size: 20px;&quot;&gt;6&lt;/font&gt;" style="whiteSpace=wrap;html=1;aspect=fixed;fillColor=none;strokeColor=none;strokeWidth=2;fontColor=#FFFFFF;" parent="1" vertex="1">
          <mxGeometry x="580" y="440" width="20" height="20" as="geometry" />
        </mxCell>
        <mxCell id="gOc0IUJmjJ7Nf5tOcqPv-43" value="&lt;font style=&quot;font-size: 20px;&quot;&gt;4&lt;/font&gt;" style="whiteSpace=wrap;html=1;aspect=fixed;fillColor=none;strokeColor=none;strokeWidth=2;fontColor=#FFFFFF;" parent="1" vertex="1">
          <mxGeometry x="580" y="380" width="20" height="20" as="geometry" />
        </mxCell>
        <mxCell id="gOc0IUJmjJ7Nf5tOcqPv-44" value="" style="endArrow=classic;html=1;rounded=0;fontSize=20;strokeWidth=2;fillColor=#b1ddf0;strokeColor=#52d1e6;fontColor=#FFFFFF;" parent="1" edge="1">
          <mxGeometry width="50" height="50" relative="1" as="geometry">
            <mxPoint x="760" y="350" as="sourcePoint" />
            <mxPoint x="600" y="460" as="targetPoint" />
          </mxGeometry>
        </mxCell>
        <mxCell id="gOc0IUJmjJ7Nf5tOcqPv-45" value="" style="shape=flexArrow;endArrow=classic;html=1;rounded=0;fontSize=20;strokeColor=none;strokeWidth=2;fillColor=#b7d7a9;" parent="1" edge="1">
          <mxGeometry width="50" height="50" relative="1" as="geometry">
            <mxPoint x="510" y="360" as="sourcePoint" />
            <mxPoint x="509" y="290" as="targetPoint" />
          </mxGeometry>
        </mxCell>
        <mxCell id="gOc0IUJmjJ7Nf5tOcqPv-48" value="" style="shape=flexArrow;endArrow=classic;html=1;rounded=0;fontSize=20;strokeColor=none;strokeWidth=2;fillColor=#b7d7a9;" parent="1" edge="1">
          <mxGeometry width="50" height="50" relative="1" as="geometry">
            <mxPoint x="361" y="360" as="sourcePoint" />
            <mxPoint x="360" y="290" as="targetPoint" />
          </mxGeometry>
        </mxCell>
        <mxCell id="gOc0IUJmjJ7Nf5tOcqPv-49" value="" style="shape=flexArrow;endArrow=classic;html=1;rounded=0;fontSize=20;strokeColor=none;strokeWidth=2;fillColor=#b7d7a9;" parent="1" edge="1">
          <mxGeometry width="50" height="50" relative="1" as="geometry">
            <mxPoint x="221" y="360" as="sourcePoint" />
            <mxPoint x="220" y="290" as="targetPoint" />
          </mxGeometry>
        </mxCell>
        <mxCell id="gOc0IUJmjJ7Nf5tOcqPv-50" value="" style="rounded=0;whiteSpace=wrap;html=1;fontSize=20;strokeColor=#2defed;strokeWidth=2;fillColor=none;" parent="1" vertex="1">
          <mxGeometry x="300" y="210" width="120" height="50" as="geometry" />
        </mxCell>
        <mxCell id="gOc0IUJmjJ7Nf5tOcqPv-51" value="Sliding Window" style="rounded=0;whiteSpace=wrap;html=1;fontSize=20;strokeColor=none;strokeWidth=2;fillColor=none;fontColor=#29f8ff;" parent="1" vertex="1">
          <mxGeometry x="290" y="260" width="140" height="30" as="geometry" />
        </mxCell>
        <mxCell id="gOc0IUJmjJ7Nf5tOcqPv-52" value="Already Send&lt;br&gt;and&lt;br&gt;Acknowledged" style="rounded=0;whiteSpace=wrap;html=1;fontSize=20;strokeColor=none;strokeWidth=2;fillColor=none;fontColor=#30ce24;" parent="1" vertex="1">
          <mxGeometry x="160" y="383" width="140" height="60" as="geometry" />
        </mxCell>
        <mxCell id="gOc0IUJmjJ7Nf5tOcqPv-53" value="Send but not acknowledge" style="rounded=0;whiteSpace=wrap;html=1;fontSize=20;strokeColor=none;strokeWidth=2;fillColor=none;fontColor=#C2BE7A;" parent="1" vertex="1">
          <mxGeometry x="305" y="374" width="140" height="60" as="geometry" />
        </mxCell>
        <mxCell id="gOc0IUJmjJ7Nf5tOcqPv-54" value="Not Yet&lt;br&gt;Sent" style="rounded=0;whiteSpace=wrap;html=1;fontSize=20;strokeColor=none;strokeWidth=2;fillColor=none;fontColor=#C9726A;" parent="1" vertex="1">
          <mxGeometry x="440" y="374" width="140" height="60" as="geometry" />
        </mxCell>
      </root>
    </mxGraphModel>
  </diagram>
  <diagram name="滑动窗口goback-N" id="BcNsQk3uO8LMQJ1VhpAo">
    <mxGraphModel dx="846" dy="694" grid="0" gridSize="10" guides="1" tooltips="1" connect="1" arrows="1" fold="1" page="1" pageScale="1" pageWidth="827" pageHeight="1169" background="#001f18" math="0" shadow="0">
      <root>
        <mxCell id="nwJ9JWE3YCryD5ko7MXs-0" />
        <mxCell id="nwJ9JWE3YCryD5ko7MXs-1" parent="nwJ9JWE3YCryD5ko7MXs-0" />
        <mxCell id="nwJ9JWE3YCryD5ko7MXs-2" value="&lt;font style=&quot;font-size: 20px;&quot;&gt;0&lt;/font&gt;" style="whiteSpace=wrap;html=1;aspect=fixed;fillColor=none;strokeColor=#e6b45e;strokeWidth=2;fontColor=#FFFFFF;" parent="nwJ9JWE3YCryD5ko7MXs-1" vertex="1">
          <mxGeometry x="210" y="220" width="30" height="30" as="geometry" />
        </mxCell>
        <mxCell id="nwJ9JWE3YCryD5ko7MXs-3" value="&lt;span style=&quot;font-size: 20px;&quot;&gt;1&lt;/span&gt;" style="whiteSpace=wrap;html=1;aspect=fixed;fillColor=none;strokeColor=#e6b45e;strokeWidth=2;fontColor=#FFFFFF;" parent="nwJ9JWE3YCryD5ko7MXs-1" vertex="1">
          <mxGeometry x="240" y="220" width="30" height="30" as="geometry" />
        </mxCell>
        <mxCell id="nwJ9JWE3YCryD5ko7MXs-4" value="&lt;font style=&quot;font-size: 20px;&quot;&gt;2&lt;/font&gt;" style="whiteSpace=wrap;html=1;aspect=fixed;fillColor=none;strokeColor=#e6b45e;strokeWidth=2;fontColor=#FFFFFF;" parent="nwJ9JWE3YCryD5ko7MXs-1" vertex="1">
          <mxGeometry x="270" y="220" width="30" height="30" as="geometry" />
        </mxCell>
        <mxCell id="nwJ9JWE3YCryD5ko7MXs-5" value="&lt;font style=&quot;font-size: 20px;&quot;&gt;3&lt;/font&gt;" style="whiteSpace=wrap;html=1;aspect=fixed;fillColor=none;strokeColor=#e6b45e;strokeWidth=2;fontColor=#FFFFFF;" parent="nwJ9JWE3YCryD5ko7MXs-1" vertex="1">
          <mxGeometry x="300" y="220" width="30" height="30" as="geometry" />
        </mxCell>
        <mxCell id="nwJ9JWE3YCryD5ko7MXs-6" value="&lt;font style=&quot;font-size: 20px;&quot;&gt;4&lt;/font&gt;" style="whiteSpace=wrap;html=1;aspect=fixed;fillColor=none;strokeColor=#e6b45e;strokeWidth=2;fontColor=#FFFFFF;" parent="nwJ9JWE3YCryD5ko7MXs-1" vertex="1">
          <mxGeometry x="330" y="220" width="30" height="30" as="geometry" />
        </mxCell>
        <mxCell id="nwJ9JWE3YCryD5ko7MXs-7" value="&lt;font style=&quot;font-size: 20px;&quot;&gt;5&lt;/font&gt;" style="whiteSpace=wrap;html=1;aspect=fixed;fillColor=none;strokeColor=#e6b45e;strokeWidth=2;fontColor=#FFFFFF;" parent="nwJ9JWE3YCryD5ko7MXs-1" vertex="1">
          <mxGeometry x="360" y="220" width="30" height="30" as="geometry" />
        </mxCell>
        <mxCell id="nwJ9JWE3YCryD5ko7MXs-8" value="&lt;font style=&quot;font-size: 20px;&quot;&gt;6&lt;/font&gt;" style="whiteSpace=wrap;html=1;aspect=fixed;fillColor=none;strokeColor=#e6b45e;strokeWidth=2;fontColor=#FFFFFF;" parent="nwJ9JWE3YCryD5ko7MXs-1" vertex="1">
          <mxGeometry x="390" y="220" width="30" height="30" as="geometry" />
        </mxCell>
        <mxCell id="nwJ9JWE3YCryD5ko7MXs-9" value="&lt;font style=&quot;font-size: 20px;&quot;&gt;7&lt;/font&gt;" style="whiteSpace=wrap;html=1;aspect=fixed;fillColor=none;strokeColor=#e6b45e;strokeWidth=2;fontColor=#FFFFFF;" parent="nwJ9JWE3YCryD5ko7MXs-1" vertex="1">
          <mxGeometry x="420" y="220" width="30" height="30" as="geometry" />
        </mxCell>
        <mxCell id="nwJ9JWE3YCryD5ko7MXs-10" value="&lt;font style=&quot;font-size: 20px;&quot;&gt;8&lt;/font&gt;" style="whiteSpace=wrap;html=1;aspect=fixed;fillColor=none;strokeColor=#e6b45e;strokeWidth=2;fontColor=#FFFFFF;" parent="nwJ9JWE3YCryD5ko7MXs-1" vertex="1">
          <mxGeometry x="450" y="220" width="30" height="30" as="geometry" />
        </mxCell>
        <mxCell id="nwJ9JWE3YCryD5ko7MXs-11" value="&lt;font style=&quot;font-size: 20px;&quot;&gt;9&lt;/font&gt;" style="whiteSpace=wrap;html=1;aspect=fixed;fillColor=none;strokeColor=#e6b45e;strokeWidth=2;fontColor=#FFFFFF;" parent="nwJ9JWE3YCryD5ko7MXs-1" vertex="1">
          <mxGeometry x="480" y="220" width="30" height="30" as="geometry" />
        </mxCell>
        <mxCell id="nwJ9JWE3YCryD5ko7MXs-12" value="&lt;font style=&quot;font-size: 20px;&quot;&gt;10&lt;/font&gt;" style="whiteSpace=wrap;html=1;aspect=fixed;fillColor=none;strokeColor=#e6b45e;strokeWidth=2;fontColor=#FFFFFF;" parent="nwJ9JWE3YCryD5ko7MXs-1" vertex="1">
          <mxGeometry x="510" y="220" width="30" height="30" as="geometry" />
        </mxCell>
        <mxCell id="nwJ9JWE3YCryD5ko7MXs-13" value="" style="endArrow=none;html=1;rounded=0;fontSize=20;strokeWidth=2;fillColor=#ffcc99;strokeColor=#efae5a;entryX=0.5;entryY=1;entryDx=0;entryDy=0;" parent="nwJ9JWE3YCryD5ko7MXs-1" target="nwJ9JWE3YCryD5ko7MXs-14" edge="1">
          <mxGeometry width="50" height="50" relative="1" as="geometry">
            <mxPoint x="600" y="618" as="sourcePoint" />
            <mxPoint x="599.5" y="190" as="targetPoint" />
          </mxGeometry>
        </mxCell>
        <mxCell id="nwJ9JWE3YCryD5ko7MXs-14" value="Sender" style="rounded=1;whiteSpace=wrap;html=1;fontSize=20;strokeColor=none;fillColor=none;strokeWidth=2;fontColor=#FFFFFF;" parent="nwJ9JWE3YCryD5ko7MXs-1" vertex="1">
          <mxGeometry x="560" y="190" width="80" height="40" as="geometry" />
        </mxCell>
        <mxCell id="nwJ9JWE3YCryD5ko7MXs-15" value="Receiver" style="rounded=1;whiteSpace=wrap;html=1;fontSize=20;strokeColor=none;fillColor=none;strokeWidth=2;fontColor=#FFFFFF;" parent="nwJ9JWE3YCryD5ko7MXs-1" vertex="1">
          <mxGeometry x="720" y="190" width="80" height="40" as="geometry" />
        </mxCell>
        <mxCell id="nwJ9JWE3YCryD5ko7MXs-16" value="" style="endArrow=none;html=1;rounded=0;fontSize=20;strokeWidth=2;strokeColor=#02db21;" parent="nwJ9JWE3YCryD5ko7MXs-1" edge="1">
          <mxGeometry width="50" height="50" relative="1" as="geometry">
            <mxPoint x="760" y="620" as="sourcePoint" />
            <mxPoint x="760" y="230" as="targetPoint" />
          </mxGeometry>
        </mxCell>
        <mxCell id="nwJ9JWE3YCryD5ko7MXs-17" value="" style="endArrow=classic;html=1;rounded=0;fontSize=20;strokeWidth=2;fillColor=#b1ddf0;strokeColor=#52d1e6;fontColor=#FFFFFF;" parent="nwJ9JWE3YCryD5ko7MXs-1" edge="1">
          <mxGeometry width="50" height="50" relative="1" as="geometry">
            <mxPoint x="600" y="250" as="sourcePoint" />
            <mxPoint x="760" y="280" as="targetPoint" />
          </mxGeometry>
        </mxCell>
        <mxCell id="nwJ9JWE3YCryD5ko7MXs-18" value="&lt;font style=&quot;font-size: 20px;&quot;&gt;0&lt;/font&gt;" style="whiteSpace=wrap;html=1;aspect=fixed;fillColor=none;strokeColor=none;strokeWidth=2;fontColor=#FFFFFF;" parent="nwJ9JWE3YCryD5ko7MXs-1" vertex="1">
          <mxGeometry x="580" y="240" width="20" height="20" as="geometry" />
        </mxCell>
        <mxCell id="nwJ9JWE3YCryD5ko7MXs-19" value="" style="endArrow=classic;html=1;rounded=0;fontSize=20;strokeWidth=2;fillColor=#b1ddf0;strokeColor=#52d1e6;fontColor=#FFFFFF;" parent="nwJ9JWE3YCryD5ko7MXs-1" edge="1">
          <mxGeometry width="50" height="50" relative="1" as="geometry">
            <mxPoint x="600" y="280" as="sourcePoint" />
            <mxPoint x="760" y="310" as="targetPoint" />
          </mxGeometry>
        </mxCell>
        <mxCell id="nwJ9JWE3YCryD5ko7MXs-20" value="" style="endArrow=classic;html=1;rounded=0;fontSize=20;strokeWidth=2;fillColor=#b1ddf0;strokeColor=#52d1e6;fontColor=#FFFFFF;" parent="nwJ9JWE3YCryD5ko7MXs-1" edge="1">
          <mxGeometry width="50" height="50" relative="1" as="geometry">
            <mxPoint x="600" y="310" as="sourcePoint" />
            <mxPoint x="760" y="340" as="targetPoint" />
          </mxGeometry>
        </mxCell>
        <mxCell id="nwJ9JWE3YCryD5ko7MXs-21" value="" style="endArrow=classic;html=1;rounded=0;fontSize=20;strokeWidth=2;fillColor=#b1ddf0;strokeColor=#52d1e6;fontColor=#FFFFFF;" parent="nwJ9JWE3YCryD5ko7MXs-1" edge="1">
          <mxGeometry width="50" height="50" relative="1" as="geometry">
            <mxPoint x="600" y="340" as="sourcePoint" />
            <mxPoint x="760" y="370" as="targetPoint" />
          </mxGeometry>
        </mxCell>
        <mxCell id="nwJ9JWE3YCryD5ko7MXs-22" value="" style="endArrow=classic;html=1;rounded=0;fontSize=20;strokeWidth=2;fillColor=#b1ddf0;strokeColor=#52d1e6;fontColor=#FFFFFF;" parent="nwJ9JWE3YCryD5ko7MXs-1" edge="1">
          <mxGeometry width="50" height="50" relative="1" as="geometry">
            <mxPoint x="760" y="280" as="sourcePoint" />
            <mxPoint x="597" y="368" as="targetPoint" />
          </mxGeometry>
        </mxCell>
        <mxCell id="nwJ9JWE3YCryD5ko7MXs-24" value="" style="endArrow=classic;html=1;rounded=0;fontSize=20;strokeWidth=2;fillColor=#b1ddf0;strokeColor=#52d1e6;fontColor=#FFFFFF;" parent="nwJ9JWE3YCryD5ko7MXs-1" edge="1">
          <mxGeometry width="50" height="50" relative="1" as="geometry">
            <mxPoint x="760" y="310" as="sourcePoint" />
            <mxPoint x="599" y="401" as="targetPoint" />
          </mxGeometry>
        </mxCell>
        <mxCell id="nwJ9JWE3YCryD5ko7MXs-25" value="&lt;font style=&quot;font-size: 20px;&quot;&gt;1&lt;/font&gt;" style="whiteSpace=wrap;html=1;aspect=fixed;fillColor=none;strokeColor=none;strokeWidth=2;fontColor=#FFFFFF;" parent="nwJ9JWE3YCryD5ko7MXs-1" vertex="1">
          <mxGeometry x="580" y="270" width="20" height="20" as="geometry" />
        </mxCell>
        <mxCell id="nwJ9JWE3YCryD5ko7MXs-26" value="&lt;font style=&quot;font-size: 20px;&quot;&gt;2&lt;/font&gt;" style="whiteSpace=wrap;html=1;aspect=fixed;fillColor=none;strokeColor=none;strokeWidth=2;fontColor=#FFFFFF;" parent="nwJ9JWE3YCryD5ko7MXs-1" vertex="1">
          <mxGeometry x="580" y="300" width="20" height="20" as="geometry" />
        </mxCell>
        <mxCell id="nwJ9JWE3YCryD5ko7MXs-27" value="&lt;font style=&quot;font-size: 20px;&quot;&gt;3&lt;/font&gt;" style="whiteSpace=wrap;html=1;aspect=fixed;fillColor=none;strokeColor=none;strokeWidth=2;fontColor=#FFFFFF;" parent="nwJ9JWE3YCryD5ko7MXs-1" vertex="1">
          <mxGeometry x="580" y="330" width="20" height="20" as="geometry" />
        </mxCell>
        <mxCell id="nwJ9JWE3YCryD5ko7MXs-28" value="&lt;font style=&quot;font-size: 20px;&quot;&gt;0&lt;/font&gt;" style="whiteSpace=wrap;html=1;aspect=fixed;fillColor=none;strokeColor=none;strokeWidth=2;fontColor=#FFFFFF;" parent="nwJ9JWE3YCryD5ko7MXs-1" vertex="1">
          <mxGeometry x="760" y="270" width="20" height="20" as="geometry" />
        </mxCell>
        <mxCell id="nwJ9JWE3YCryD5ko7MXs-29" value="&lt;font style=&quot;font-size: 20px;&quot;&gt;1&lt;/font&gt;" style="whiteSpace=wrap;html=1;aspect=fixed;fillColor=none;strokeColor=none;strokeWidth=2;fontColor=#FFFFFF;" parent="nwJ9JWE3YCryD5ko7MXs-1" vertex="1">
          <mxGeometry x="760" y="300" width="20" height="20" as="geometry" />
        </mxCell>
        <mxCell id="nwJ9JWE3YCryD5ko7MXs-30" value="&lt;font style=&quot;font-size: 20px;&quot;&gt;2&lt;/font&gt;" style="whiteSpace=wrap;html=1;aspect=fixed;fillColor=none;strokeColor=none;strokeWidth=2;fontColor=#FFFFFF;" parent="nwJ9JWE3YCryD5ko7MXs-1" vertex="1">
          <mxGeometry x="760" y="330" width="20" height="20" as="geometry" />
        </mxCell>
        <mxCell id="nwJ9JWE3YCryD5ko7MXs-31" value="" style="endArrow=classic;html=1;rounded=0;fontSize=20;strokeWidth=2;fillColor=#b1ddf0;strokeColor=#52d1e6;fontColor=#FFFFFF;" parent="nwJ9JWE3YCryD5ko7MXs-1" edge="1">
          <mxGeometry width="50" height="50" relative="1" as="geometry">
            <mxPoint x="600" y="370" as="sourcePoint" />
            <mxPoint x="760" y="400" as="targetPoint" />
          </mxGeometry>
        </mxCell>
        <mxCell id="nwJ9JWE3YCryD5ko7MXs-32" value="" style="endArrow=classic;html=1;rounded=0;fontSize=20;strokeWidth=2;fillColor=#b1ddf0;strokeColor=#52d1e6;fontColor=#FFFFFF;" parent="nwJ9JWE3YCryD5ko7MXs-1" edge="1">
          <mxGeometry width="50" height="50" relative="1" as="geometry">
            <mxPoint x="600" y="400" as="sourcePoint" />
            <mxPoint x="760" y="430" as="targetPoint" />
          </mxGeometry>
        </mxCell>
        <mxCell id="nwJ9JWE3YCryD5ko7MXs-33" value="" style="endArrow=classic;html=1;rounded=0;fontSize=20;strokeWidth=2;fillColor=#b1ddf0;strokeColor=#52d1e6;fontColor=#FFFFFF;" parent="nwJ9JWE3YCryD5ko7MXs-1" edge="1">
          <mxGeometry width="50" height="50" relative="1" as="geometry">
            <mxPoint x="600" y="513" as="sourcePoint" />
            <mxPoint x="760" y="543" as="targetPoint" />
          </mxGeometry>
        </mxCell>
        <mxCell id="nwJ9JWE3YCryD5ko7MXs-34" value="&lt;font style=&quot;font-size: 20px;&quot;&gt;5&lt;/font&gt;" style="whiteSpace=wrap;html=1;aspect=fixed;fillColor=none;strokeColor=none;strokeWidth=2;fontColor=#FFFFFF;" parent="nwJ9JWE3YCryD5ko7MXs-1" vertex="1">
          <mxGeometry x="580" y="394" width="20" height="20" as="geometry" />
        </mxCell>
        <mxCell id="nwJ9JWE3YCryD5ko7MXs-36" value="&lt;font style=&quot;font-size: 20px;&quot;&gt;4&lt;/font&gt;" style="whiteSpace=wrap;html=1;aspect=fixed;fillColor=none;strokeColor=none;strokeWidth=2;fontColor=#FFFFFF;" parent="nwJ9JWE3YCryD5ko7MXs-1" vertex="1">
          <mxGeometry x="580" y="360" width="20" height="20" as="geometry" />
        </mxCell>
        <mxCell id="nwJ9JWE3YCryD5ko7MXs-37" value="" style="endArrow=classic;html=1;rounded=0;fontSize=20;strokeWidth=2;fillColor=#b1ddf0;strokeColor=#52d1e6;fontColor=#FFFFFF;" parent="nwJ9JWE3YCryD5ko7MXs-1" edge="1">
          <mxGeometry width="50" height="50" relative="1" as="geometry">
            <mxPoint x="757" y="340" as="sourcePoint" />
            <mxPoint x="626" y="411" as="targetPoint" />
          </mxGeometry>
        </mxCell>
        <mxCell id="nwJ9JWE3YCryD5ko7MXs-41" value="" style="rounded=0;whiteSpace=wrap;html=1;fontSize=20;strokeColor=#2defed;strokeWidth=2;fillColor=none;" parent="nwJ9JWE3YCryD5ko7MXs-1" vertex="1">
          <mxGeometry x="270" y="210" width="120" height="50" as="geometry" />
        </mxCell>
        <mxCell id="nwJ9JWE3YCryD5ko7MXs-42" value="Sliding Window" style="rounded=0;whiteSpace=wrap;html=1;fontSize=20;strokeColor=none;strokeWidth=2;fillColor=none;fontColor=#29f8ff;" parent="nwJ9JWE3YCryD5ko7MXs-1" vertex="1">
          <mxGeometry x="263" y="260" width="140" height="30" as="geometry" />
        </mxCell>
        <mxCell id="SBivNd82lpDhLW8FzmX2-0" value="Go-Back to 2" style="rounded=0;whiteSpace=wrap;html=1;fontSize=20;strokeColor=none;strokeWidth=2;fillColor=none;fontColor=#FFFFFF;" parent="nwJ9JWE3YCryD5ko7MXs-1" vertex="1">
          <mxGeometry x="210" y="300" width="140" height="60" as="geometry" />
        </mxCell>
        <mxCell id="SBivNd82lpDhLW8FzmX2-1" value="Window Size:" style="rounded=0;whiteSpace=wrap;html=1;fontSize=20;strokeColor=none;strokeWidth=2;fillColor=none;fontColor=#FFFFFF;" parent="nwJ9JWE3YCryD5ko7MXs-1" vertex="1">
          <mxGeometry x="210" y="374" width="140" height="60" as="geometry" />
        </mxCell>
        <mxCell id="SBivNd82lpDhLW8FzmX2-2" value="&lt;font style=&quot;font-size: 20px;&quot;&gt;4&lt;/font&gt;" style="whiteSpace=wrap;html=1;aspect=fixed;fillColor=none;strokeColor=#02DB21;strokeWidth=2;fontColor=#FFFFFF;" parent="nwJ9JWE3YCryD5ko7MXs-1" vertex="1">
          <mxGeometry x="354.5" y="386" width="41" height="41" as="geometry" />
        </mxCell>
        <mxCell id="SBivNd82lpDhLW8FzmX2-3" value="" style="shape=flexArrow;endArrow=classic;html=1;rounded=0;fontSize=16;fontColor=#FFFFFF;strokeColor=none;strokeWidth=2;fillColor=#fc02fe;endWidth=8.527131782945736;endSize=3.0953488372093028;width=3.3333333333333335;" parent="nwJ9JWE3YCryD5ko7MXs-1" edge="1">
          <mxGeometry width="50" height="50" relative="1" as="geometry">
            <mxPoint x="254" y="277" as="sourcePoint" />
            <mxPoint x="279" y="243" as="targetPoint" />
          </mxGeometry>
        </mxCell>
        <mxCell id="SBivNd82lpDhLW8FzmX2-4" value="×" style="rounded=0;whiteSpace=wrap;html=1;fontSize=35;fontColor=#FF0000;strokeColor=none;strokeWidth=2;fillColor=none;" parent="nwJ9JWE3YCryD5ko7MXs-1" vertex="1">
          <mxGeometry x="609" y="415" width="31" height="19" as="geometry" />
        </mxCell>
        <mxCell id="SBivNd82lpDhLW8FzmX2-5" value="" style="endArrow=classic;html=1;rounded=0;fontSize=20;strokeWidth=2;fillColor=#b1ddf0;strokeColor=#52d1e6;fontColor=#FFFFFF;" parent="nwJ9JWE3YCryD5ko7MXs-1" edge="1">
          <mxGeometry width="50" height="50" relative="1" as="geometry">
            <mxPoint x="600" y="535" as="sourcePoint" />
            <mxPoint x="760" y="565" as="targetPoint" />
          </mxGeometry>
        </mxCell>
        <mxCell id="SBivNd82lpDhLW8FzmX2-6" value="" style="endArrow=classic;html=1;rounded=0;fontSize=20;strokeWidth=2;fillColor=#b1ddf0;strokeColor=#52d1e6;fontColor=#FFFFFF;" parent="nwJ9JWE3YCryD5ko7MXs-1" edge="1">
          <mxGeometry width="50" height="50" relative="1" as="geometry">
            <mxPoint x="600" y="557" as="sourcePoint" />
            <mxPoint x="760" y="587" as="targetPoint" />
          </mxGeometry>
        </mxCell>
        <mxCell id="SBivNd82lpDhLW8FzmX2-7" value="" style="endArrow=classic;html=1;rounded=0;fontSize=20;strokeWidth=2;fillColor=#b1ddf0;strokeColor=#52d1e6;fontColor=#FFFFFF;" parent="nwJ9JWE3YCryD5ko7MXs-1" edge="1">
          <mxGeometry width="50" height="50" relative="1" as="geometry">
            <mxPoint x="600" y="581" as="sourcePoint" />
            <mxPoint x="760" y="611" as="targetPoint" />
          </mxGeometry>
        </mxCell>
        <mxCell id="SBivNd82lpDhLW8FzmX2-8" value="&lt;font style=&quot;font-size: 20px;&quot;&gt;2&lt;/font&gt;" style="whiteSpace=wrap;html=1;aspect=fixed;fillColor=none;strokeColor=none;strokeWidth=2;fontColor=#FFFFFF;" parent="nwJ9JWE3YCryD5ko7MXs-1" vertex="1">
          <mxGeometry x="580" y="501" width="20" height="20" as="geometry" />
        </mxCell>
        <mxCell id="SBivNd82lpDhLW8FzmX2-9" value="&lt;font style=&quot;font-size: 20px;&quot;&gt;3&lt;/font&gt;" style="whiteSpace=wrap;html=1;aspect=fixed;fillColor=none;strokeColor=none;strokeWidth=2;fontColor=#FFFFFF;" parent="nwJ9JWE3YCryD5ko7MXs-1" vertex="1">
          <mxGeometry x="580" y="526" width="20" height="20" as="geometry" />
        </mxCell>
        <mxCell id="SBivNd82lpDhLW8FzmX2-10" value="&lt;font style=&quot;font-size: 20px;&quot;&gt;4&lt;/font&gt;" style="whiteSpace=wrap;html=1;aspect=fixed;fillColor=none;strokeColor=none;strokeWidth=2;fontColor=#FFFFFF;" parent="nwJ9JWE3YCryD5ko7MXs-1" vertex="1">
          <mxGeometry x="580" y="550" width="20" height="20" as="geometry" />
        </mxCell>
        <mxCell id="SBivNd82lpDhLW8FzmX2-11" value="&lt;font style=&quot;font-size: 20px;&quot;&gt;5&lt;/font&gt;" style="whiteSpace=wrap;html=1;aspect=fixed;fillColor=none;strokeColor=none;strokeWidth=2;fontColor=#FFFFFF;" parent="nwJ9JWE3YCryD5ko7MXs-1" vertex="1">
          <mxGeometry x="580" y="574" width="20" height="20" as="geometry" />
        </mxCell>
        <mxCell id="QM7nqrR2eczJ1OZjkwLF-0" value="" style="sketch=0;pointerEvents=1;shadow=0;dashed=0;html=1;strokeColor=none;fillColor=#FFFFFF;labelPosition=center;verticalLabelPosition=bottom;verticalAlign=top;outlineConnect=0;align=center;shape=mxgraph.office.concepts.clock;fontSize=16;fontColor=#FFFFFF;" parent="nwJ9JWE3YCryD5ko7MXs-1" vertex="1">
          <mxGeometry x="557" y="454.5" width="31" height="31" as="geometry" />
        </mxCell>
        <mxCell id="QM7nqrR2eczJ1OZjkwLF-1" value="Timer Times&lt;br&gt;Out" style="rounded=1;whiteSpace=wrap;html=1;fontSize=16;strokeColor=none;fillColor=none;strokeWidth=2;fontColor=#FFFFFF;" parent="nwJ9JWE3YCryD5ko7MXs-1" vertex="1">
          <mxGeometry x="462" y="450" width="95" height="40" as="geometry" />
        </mxCell>
      </root>
    </mxGraphModel>
  </diagram>
  <diagram name="滑动窗口goback-N 的副本" id="AfB6t8L7O7R2gQSqyfPw">
    <mxGraphModel dx="792" dy="694" grid="0" gridSize="10" guides="1" tooltips="1" connect="1" arrows="1" fold="1" page="1" pageScale="1" pageWidth="827" pageHeight="1169" background="#001f18" math="0" shadow="0">
      <root>
        <mxCell id="K9qVJKvuqQ8BG6kZx3sW-0" />
        <mxCell id="K9qVJKvuqQ8BG6kZx3sW-1" parent="K9qVJKvuqQ8BG6kZx3sW-0" />
        <mxCell id="K9qVJKvuqQ8BG6kZx3sW-2" value="&lt;font style=&quot;font-size: 20px;&quot;&gt;0&lt;/font&gt;" style="whiteSpace=wrap;html=1;aspect=fixed;fillColor=none;strokeColor=#e6b45e;strokeWidth=2;fontColor=#FFFFFF;" parent="K9qVJKvuqQ8BG6kZx3sW-1" vertex="1">
          <mxGeometry x="210" y="220" width="30" height="30" as="geometry" />
        </mxCell>
        <mxCell id="K9qVJKvuqQ8BG6kZx3sW-3" value="&lt;span style=&quot;font-size: 20px;&quot;&gt;1&lt;/span&gt;" style="whiteSpace=wrap;html=1;aspect=fixed;fillColor=none;strokeColor=#e6b45e;strokeWidth=2;fontColor=#FFFFFF;" parent="K9qVJKvuqQ8BG6kZx3sW-1" vertex="1">
          <mxGeometry x="240" y="220" width="30" height="30" as="geometry" />
        </mxCell>
        <mxCell id="K9qVJKvuqQ8BG6kZx3sW-4" value="&lt;font style=&quot;font-size: 20px;&quot;&gt;2&lt;/font&gt;" style="whiteSpace=wrap;html=1;aspect=fixed;fillColor=none;strokeColor=#e6b45e;strokeWidth=2;fontColor=#FFFFFF;" parent="K9qVJKvuqQ8BG6kZx3sW-1" vertex="1">
          <mxGeometry x="270" y="220" width="30" height="30" as="geometry" />
        </mxCell>
        <mxCell id="K9qVJKvuqQ8BG6kZx3sW-5" value="&lt;font style=&quot;font-size: 20px;&quot;&gt;3&lt;/font&gt;" style="whiteSpace=wrap;html=1;aspect=fixed;fillColor=none;strokeColor=#e6b45e;strokeWidth=2;fontColor=#FFFFFF;" parent="K9qVJKvuqQ8BG6kZx3sW-1" vertex="1">
          <mxGeometry x="300" y="220" width="30" height="30" as="geometry" />
        </mxCell>
        <mxCell id="K9qVJKvuqQ8BG6kZx3sW-6" value="&lt;font style=&quot;font-size: 20px;&quot;&gt;4&lt;/font&gt;" style="whiteSpace=wrap;html=1;aspect=fixed;fillColor=none;strokeColor=#e6b45e;strokeWidth=2;fontColor=#FFFFFF;" parent="K9qVJKvuqQ8BG6kZx3sW-1" vertex="1">
          <mxGeometry x="330" y="220" width="30" height="30" as="geometry" />
        </mxCell>
        <mxCell id="K9qVJKvuqQ8BG6kZx3sW-7" value="&lt;font style=&quot;font-size: 20px;&quot;&gt;5&lt;/font&gt;" style="whiteSpace=wrap;html=1;aspect=fixed;fillColor=none;strokeColor=#e6b45e;strokeWidth=2;fontColor=#FFFFFF;" parent="K9qVJKvuqQ8BG6kZx3sW-1" vertex="1">
          <mxGeometry x="360" y="220" width="30" height="30" as="geometry" />
        </mxCell>
        <mxCell id="K9qVJKvuqQ8BG6kZx3sW-8" value="&lt;font style=&quot;font-size: 20px;&quot;&gt;6&lt;/font&gt;" style="whiteSpace=wrap;html=1;aspect=fixed;fillColor=none;strokeColor=#e6b45e;strokeWidth=2;fontColor=#FFFFFF;" parent="K9qVJKvuqQ8BG6kZx3sW-1" vertex="1">
          <mxGeometry x="390" y="220" width="30" height="30" as="geometry" />
        </mxCell>
        <mxCell id="K9qVJKvuqQ8BG6kZx3sW-9" value="&lt;font style=&quot;font-size: 20px;&quot;&gt;7&lt;/font&gt;" style="whiteSpace=wrap;html=1;aspect=fixed;fillColor=none;strokeColor=#e6b45e;strokeWidth=2;fontColor=#FFFFFF;" parent="K9qVJKvuqQ8BG6kZx3sW-1" vertex="1">
          <mxGeometry x="420" y="220" width="30" height="30" as="geometry" />
        </mxCell>
        <mxCell id="K9qVJKvuqQ8BG6kZx3sW-10" value="&lt;font style=&quot;font-size: 20px;&quot;&gt;8&lt;/font&gt;" style="whiteSpace=wrap;html=1;aspect=fixed;fillColor=none;strokeColor=#e6b45e;strokeWidth=2;fontColor=#FFFFFF;" parent="K9qVJKvuqQ8BG6kZx3sW-1" vertex="1">
          <mxGeometry x="450" y="220" width="30" height="30" as="geometry" />
        </mxCell>
        <mxCell id="K9qVJKvuqQ8BG6kZx3sW-11" value="&lt;font style=&quot;font-size: 20px;&quot;&gt;9&lt;/font&gt;" style="whiteSpace=wrap;html=1;aspect=fixed;fillColor=none;strokeColor=#e6b45e;strokeWidth=2;fontColor=#FFFFFF;" parent="K9qVJKvuqQ8BG6kZx3sW-1" vertex="1">
          <mxGeometry x="480" y="220" width="30" height="30" as="geometry" />
        </mxCell>
        <mxCell id="K9qVJKvuqQ8BG6kZx3sW-12" value="&lt;font style=&quot;font-size: 20px;&quot;&gt;10&lt;/font&gt;" style="whiteSpace=wrap;html=1;aspect=fixed;fillColor=none;strokeColor=#e6b45e;strokeWidth=2;fontColor=#FFFFFF;" parent="K9qVJKvuqQ8BG6kZx3sW-1" vertex="1">
          <mxGeometry x="510" y="220" width="30" height="30" as="geometry" />
        </mxCell>
        <mxCell id="K9qVJKvuqQ8BG6kZx3sW-13" value="" style="endArrow=none;html=1;rounded=0;fontSize=20;strokeWidth=2;fillColor=#ffcc99;strokeColor=#efae5a;entryX=0.5;entryY=1;entryDx=0;entryDy=0;" parent="K9qVJKvuqQ8BG6kZx3sW-1" target="K9qVJKvuqQ8BG6kZx3sW-14" edge="1">
          <mxGeometry width="50" height="50" relative="1" as="geometry">
            <mxPoint x="600" y="590" as="sourcePoint" />
            <mxPoint x="599.5" y="190" as="targetPoint" />
          </mxGeometry>
        </mxCell>
        <mxCell id="K9qVJKvuqQ8BG6kZx3sW-14" value="Sender" style="rounded=1;whiteSpace=wrap;html=1;fontSize=20;strokeColor=none;fillColor=none;strokeWidth=2;fontColor=#FFFFFF;" parent="K9qVJKvuqQ8BG6kZx3sW-1" vertex="1">
          <mxGeometry x="560" y="190" width="80" height="40" as="geometry" />
        </mxCell>
        <mxCell id="K9qVJKvuqQ8BG6kZx3sW-15" value="Receiver" style="rounded=1;whiteSpace=wrap;html=1;fontSize=20;strokeColor=none;fillColor=none;strokeWidth=2;fontColor=#FFFFFF;" parent="K9qVJKvuqQ8BG6kZx3sW-1" vertex="1">
          <mxGeometry x="720" y="190" width="80" height="40" as="geometry" />
        </mxCell>
        <mxCell id="K9qVJKvuqQ8BG6kZx3sW-16" value="" style="endArrow=none;html=1;rounded=0;fontSize=20;strokeWidth=2;strokeColor=#02db21;" parent="K9qVJKvuqQ8BG6kZx3sW-1" edge="1">
          <mxGeometry width="50" height="50" relative="1" as="geometry">
            <mxPoint x="760" y="590" as="sourcePoint" />
            <mxPoint x="760" y="230" as="targetPoint" />
          </mxGeometry>
        </mxCell>
        <mxCell id="K9qVJKvuqQ8BG6kZx3sW-17" value="" style="endArrow=classic;html=1;rounded=0;fontSize=20;strokeWidth=2;fillColor=#b1ddf0;strokeColor=#52d1e6;fontColor=#FFFFFF;" parent="K9qVJKvuqQ8BG6kZx3sW-1" edge="1">
          <mxGeometry width="50" height="50" relative="1" as="geometry">
            <mxPoint x="600" y="250" as="sourcePoint" />
            <mxPoint x="760" y="280" as="targetPoint" />
          </mxGeometry>
        </mxCell>
        <mxCell id="K9qVJKvuqQ8BG6kZx3sW-18" value="&lt;font style=&quot;font-size: 20px;&quot;&gt;0&lt;/font&gt;" style="whiteSpace=wrap;html=1;aspect=fixed;fillColor=none;strokeColor=none;strokeWidth=2;fontColor=#FFFFFF;" parent="K9qVJKvuqQ8BG6kZx3sW-1" vertex="1">
          <mxGeometry x="580" y="240" width="20" height="20" as="geometry" />
        </mxCell>
        <mxCell id="K9qVJKvuqQ8BG6kZx3sW-19" value="" style="endArrow=classic;html=1;rounded=0;fontSize=20;strokeWidth=2;fillColor=#b1ddf0;strokeColor=#52d1e6;fontColor=#FFFFFF;" parent="K9qVJKvuqQ8BG6kZx3sW-1" edge="1">
          <mxGeometry width="50" height="50" relative="1" as="geometry">
            <mxPoint x="600" y="280" as="sourcePoint" />
            <mxPoint x="760" y="310" as="targetPoint" />
          </mxGeometry>
        </mxCell>
        <mxCell id="K9qVJKvuqQ8BG6kZx3sW-20" value="" style="endArrow=classic;html=1;rounded=0;fontSize=20;strokeWidth=2;fillColor=#b1ddf0;strokeColor=#52d1e6;fontColor=#FFFFFF;" parent="K9qVJKvuqQ8BG6kZx3sW-1" edge="1">
          <mxGeometry width="50" height="50" relative="1" as="geometry">
            <mxPoint x="600" y="310" as="sourcePoint" />
            <mxPoint x="760" y="340" as="targetPoint" />
          </mxGeometry>
        </mxCell>
        <mxCell id="K9qVJKvuqQ8BG6kZx3sW-21" value="" style="endArrow=classic;html=1;rounded=0;fontSize=20;strokeWidth=2;fillColor=#b1ddf0;strokeColor=#52d1e6;fontColor=#FFFFFF;" parent="K9qVJKvuqQ8BG6kZx3sW-1" edge="1">
          <mxGeometry width="50" height="50" relative="1" as="geometry">
            <mxPoint x="600" y="340" as="sourcePoint" />
            <mxPoint x="760" y="370" as="targetPoint" />
          </mxGeometry>
        </mxCell>
        <mxCell id="K9qVJKvuqQ8BG6kZx3sW-22" value="" style="endArrow=classic;html=1;rounded=0;fontSize=20;strokeWidth=2;fillColor=#b1ddf0;strokeColor=#52d1e6;fontColor=#FFFFFF;" parent="K9qVJKvuqQ8BG6kZx3sW-1" edge="1">
          <mxGeometry width="50" height="50" relative="1" as="geometry">
            <mxPoint x="760" y="280" as="sourcePoint" />
            <mxPoint x="602" y="363" as="targetPoint" />
          </mxGeometry>
        </mxCell>
        <mxCell id="K9qVJKvuqQ8BG6kZx3sW-25" value="&lt;font style=&quot;font-size: 20px;&quot;&gt;1&lt;/font&gt;" style="whiteSpace=wrap;html=1;aspect=fixed;fillColor=none;strokeColor=none;strokeWidth=2;fontColor=#FFFFFF;" parent="K9qVJKvuqQ8BG6kZx3sW-1" vertex="1">
          <mxGeometry x="580" y="270" width="20" height="20" as="geometry" />
        </mxCell>
        <mxCell id="K9qVJKvuqQ8BG6kZx3sW-26" value="&lt;font style=&quot;font-size: 20px;&quot;&gt;2&lt;/font&gt;" style="whiteSpace=wrap;html=1;aspect=fixed;fillColor=none;strokeColor=none;strokeWidth=2;fontColor=#FFFFFF;" parent="K9qVJKvuqQ8BG6kZx3sW-1" vertex="1">
          <mxGeometry x="580" y="300" width="20" height="20" as="geometry" />
        </mxCell>
        <mxCell id="K9qVJKvuqQ8BG6kZx3sW-27" value="&lt;font style=&quot;font-size: 20px;&quot;&gt;3&lt;/font&gt;" style="whiteSpace=wrap;html=1;aspect=fixed;fillColor=none;strokeColor=none;strokeWidth=2;fontColor=#FFFFFF;" parent="K9qVJKvuqQ8BG6kZx3sW-1" vertex="1">
          <mxGeometry x="580" y="330" width="20" height="20" as="geometry" />
        </mxCell>
        <mxCell id="K9qVJKvuqQ8BG6kZx3sW-28" value="&lt;font style=&quot;font-size: 20px;&quot;&gt;0&lt;/font&gt;" style="whiteSpace=wrap;html=1;aspect=fixed;fillColor=none;strokeColor=none;strokeWidth=2;fontColor=#FFFFFF;" parent="K9qVJKvuqQ8BG6kZx3sW-1" vertex="1">
          <mxGeometry x="760" y="270" width="20" height="20" as="geometry" />
        </mxCell>
        <mxCell id="K9qVJKvuqQ8BG6kZx3sW-29" value="&lt;font style=&quot;font-size: 20px;&quot;&gt;1&lt;/font&gt;" style="whiteSpace=wrap;html=1;aspect=fixed;fillColor=none;strokeColor=none;strokeWidth=2;fontColor=#FFFFFF;" parent="K9qVJKvuqQ8BG6kZx3sW-1" vertex="1">
          <mxGeometry x="760" y="300" width="20" height="20" as="geometry" />
        </mxCell>
        <mxCell id="K9qVJKvuqQ8BG6kZx3sW-30" value="&lt;font style=&quot;font-size: 20px;&quot;&gt;2&lt;/font&gt;" style="whiteSpace=wrap;html=1;aspect=fixed;fillColor=none;strokeColor=none;strokeWidth=2;fontColor=#FFFFFF;" parent="K9qVJKvuqQ8BG6kZx3sW-1" vertex="1">
          <mxGeometry x="760" y="340" width="20" height="20" as="geometry" />
        </mxCell>
        <mxCell id="K9qVJKvuqQ8BG6kZx3sW-31" value="" style="endArrow=classic;html=1;rounded=0;fontSize=20;strokeWidth=2;fillColor=#b1ddf0;strokeColor=#52d1e6;fontColor=#FFFFFF;" parent="K9qVJKvuqQ8BG6kZx3sW-1" edge="1">
          <mxGeometry width="50" height="50" relative="1" as="geometry">
            <mxPoint x="600" y="366" as="sourcePoint" />
            <mxPoint x="760" y="396" as="targetPoint" />
          </mxGeometry>
        </mxCell>
        <mxCell id="K9qVJKvuqQ8BG6kZx3sW-32" value="" style="endArrow=classic;html=1;rounded=0;fontSize=20;strokeWidth=2;fillColor=#b1ddf0;strokeColor=#52d1e6;fontColor=#FFFFFF;" parent="K9qVJKvuqQ8BG6kZx3sW-1" edge="1">
          <mxGeometry width="50" height="50" relative="1" as="geometry">
            <mxPoint x="600" y="394" as="sourcePoint" />
            <mxPoint x="760" y="424" as="targetPoint" />
          </mxGeometry>
        </mxCell>
        <mxCell id="K9qVJKvuqQ8BG6kZx3sW-34" value="&lt;font style=&quot;font-size: 20px;&quot;&gt;5&lt;/font&gt;" style="whiteSpace=wrap;html=1;aspect=fixed;fillColor=none;strokeColor=none;strokeWidth=2;fontColor=#FFFFFF;" parent="K9qVJKvuqQ8BG6kZx3sW-1" vertex="1">
          <mxGeometry x="580" y="384" width="20" height="20" as="geometry" />
        </mxCell>
        <mxCell id="K9qVJKvuqQ8BG6kZx3sW-36" value="&lt;font style=&quot;font-size: 20px;&quot;&gt;4&lt;/font&gt;" style="whiteSpace=wrap;html=1;aspect=fixed;fillColor=none;strokeColor=none;strokeWidth=2;fontColor=#FFFFFF;" parent="K9qVJKvuqQ8BG6kZx3sW-1" vertex="1">
          <mxGeometry x="580" y="354" width="20" height="20" as="geometry" />
        </mxCell>
        <mxCell id="K9qVJKvuqQ8BG6kZx3sW-38" value="" style="rounded=0;whiteSpace=wrap;html=1;fontSize=20;strokeColor=#2defed;strokeWidth=2;fillColor=none;" parent="K9qVJKvuqQ8BG6kZx3sW-1" vertex="1">
          <mxGeometry x="270" y="210" width="120" height="50" as="geometry" />
        </mxCell>
        <mxCell id="K9qVJKvuqQ8BG6kZx3sW-39" value="Sliding Window" style="rounded=0;whiteSpace=wrap;html=1;fontSize=20;strokeColor=none;strokeWidth=2;fillColor=none;fontColor=#29f8ff;" parent="K9qVJKvuqQ8BG6kZx3sW-1" vertex="1">
          <mxGeometry x="263" y="260" width="140" height="30" as="geometry" />
        </mxCell>
        <mxCell id="K9qVJKvuqQ8BG6kZx3sW-41" value="Window Size:" style="rounded=0;whiteSpace=wrap;html=1;fontSize=20;strokeColor=none;strokeWidth=2;fillColor=none;fontColor=#FFFFFF;" parent="K9qVJKvuqQ8BG6kZx3sW-1" vertex="1">
          <mxGeometry x="210" y="374" width="140" height="60" as="geometry" />
        </mxCell>
        <mxCell id="K9qVJKvuqQ8BG6kZx3sW-42" value="&lt;font style=&quot;font-size: 20px;&quot;&gt;4&lt;/font&gt;" style="whiteSpace=wrap;html=1;aspect=fixed;fillColor=none;strokeColor=#02DB21;strokeWidth=2;fontColor=#FFFFFF;" parent="K9qVJKvuqQ8BG6kZx3sW-1" vertex="1">
          <mxGeometry x="354.5" y="386" width="41" height="41" as="geometry" />
        </mxCell>
        <mxCell id="K9qVJKvuqQ8BG6kZx3sW-44" value="×" style="rounded=0;whiteSpace=wrap;html=1;fontSize=35;fontColor=#FF0000;strokeColor=none;strokeWidth=2;fillColor=none;" parent="K9qVJKvuqQ8BG6kZx3sW-1" vertex="1">
          <mxGeometry x="609" y="404" width="31" height="19" as="geometry" />
        </mxCell>
        <mxCell id="11FGHcyQwIqrt_Gw5ASB-6" value="&lt;font style=&quot;font-size: 20px;&quot;&gt;2&lt;/font&gt;" style="whiteSpace=wrap;html=1;aspect=fixed;fillColor=none;strokeColor=none;strokeWidth=2;fontColor=#FFFFFF;" parent="K9qVJKvuqQ8BG6kZx3sW-1" vertex="1">
          <mxGeometry x="580" y="531" width="20" height="20" as="geometry" />
        </mxCell>
        <mxCell id="_qc8fO7ZmNQMo1p7wXEZ-0" value="&lt;font style=&quot;font-size: 20px;&quot;&gt;3&lt;/font&gt;" style="whiteSpace=wrap;html=1;aspect=fixed;fillColor=none;strokeColor=none;strokeWidth=2;fontColor=#FFFFFF;" parent="K9qVJKvuqQ8BG6kZx3sW-1" vertex="1">
          <mxGeometry x="760" y="366" width="20" height="20" as="geometry" />
        </mxCell>
        <mxCell id="_qc8fO7ZmNQMo1p7wXEZ-1" value="&lt;font style=&quot;font-size: 20px;&quot;&gt;4&lt;/font&gt;" style="whiteSpace=wrap;html=1;aspect=fixed;fillColor=none;strokeColor=none;strokeWidth=2;fontColor=#FFFFFF;" parent="K9qVJKvuqQ8BG6kZx3sW-1" vertex="1">
          <mxGeometry x="760" y="390" width="20" height="20" as="geometry" />
        </mxCell>
        <mxCell id="_qc8fO7ZmNQMo1p7wXEZ-2" value="&lt;font style=&quot;font-size: 20px;&quot;&gt;5&lt;/font&gt;" style="whiteSpace=wrap;html=1;aspect=fixed;fillColor=none;strokeColor=none;strokeWidth=2;fontColor=#FFFFFF;" parent="K9qVJKvuqQ8BG6kZx3sW-1" vertex="1">
          <mxGeometry x="760" y="414" width="20" height="20" as="geometry" />
        </mxCell>
        <mxCell id="X2br1umDM565dJndbDHJ-0" value="" style="endArrow=classic;html=1;rounded=0;fontSize=20;strokeWidth=2;fillColor=#b1ddf0;strokeColor=#52d1e6;fontColor=#FFFFFF;" parent="K9qVJKvuqQ8BG6kZx3sW-1" edge="1">
          <mxGeometry width="50" height="50" relative="1" as="geometry">
            <mxPoint x="760" y="310" as="sourcePoint" />
            <mxPoint x="602" y="393" as="targetPoint" />
          </mxGeometry>
        </mxCell>
        <mxCell id="X2br1umDM565dJndbDHJ-1" value="" style="endArrow=classic;html=1;rounded=0;fontSize=20;strokeWidth=2;fillColor=#b1ddf0;strokeColor=#52d1e6;fontColor=#FFFFFF;" parent="K9qVJKvuqQ8BG6kZx3sW-1" edge="1">
          <mxGeometry width="50" height="50" relative="1" as="geometry">
            <mxPoint x="760" y="339" as="sourcePoint" />
            <mxPoint x="629" y="407" as="targetPoint" />
          </mxGeometry>
        </mxCell>
        <mxCell id="X2br1umDM565dJndbDHJ-2" value="" style="endArrow=classic;html=1;rounded=0;fontSize=20;strokeWidth=2;fillColor=#b1ddf0;strokeColor=#52d1e6;fontColor=#FFFFFF;" parent="K9qVJKvuqQ8BG6kZx3sW-1" edge="1">
          <mxGeometry width="50" height="50" relative="1" as="geometry">
            <mxPoint x="760" y="396" as="sourcePoint" />
            <mxPoint x="602" y="479" as="targetPoint" />
          </mxGeometry>
        </mxCell>
        <mxCell id="qx0iPAUjt9yE_s1nzRNj-0" value="" style="endArrow=classic;html=1;rounded=0;fontSize=20;strokeWidth=2;fillColor=#b1ddf0;strokeColor=#52d1e6;fontColor=#FFFFFF;" parent="K9qVJKvuqQ8BG6kZx3sW-1" edge="1">
          <mxGeometry width="50" height="50" relative="1" as="geometry">
            <mxPoint x="760" y="427" as="sourcePoint" />
            <mxPoint x="602" y="510" as="targetPoint" />
          </mxGeometry>
        </mxCell>
        <mxCell id="qx0iPAUjt9yE_s1nzRNj-1" value="" style="endArrow=classic;html=1;rounded=0;fontSize=20;strokeWidth=2;fillColor=#b1ddf0;strokeColor=#52d1e6;fontColor=#FFFFFF;" parent="K9qVJKvuqQ8BG6kZx3sW-1" edge="1">
          <mxGeometry width="50" height="50" relative="1" as="geometry">
            <mxPoint x="601" y="543" as="sourcePoint" />
            <mxPoint x="761" y="573" as="targetPoint" />
          </mxGeometry>
        </mxCell>
        <mxCell id="YFDpSKgLBlV9wkK_7e2T-0" value="" style="endArrow=classic;html=1;rounded=0;fontSize=20;strokeWidth=2;fillColor=#b1ddf0;strokeColor=#52d1e6;fontColor=#FFFFFF;" edge="1" parent="K9qVJKvuqQ8BG6kZx3sW-1">
          <mxGeometry width="50" height="50" relative="1" as="geometry">
            <mxPoint x="760" y="370" as="sourcePoint" />
            <mxPoint x="602" y="453" as="targetPoint" />
          </mxGeometry>
        </mxCell>
      </root>
    </mxGraphModel>
  </diagram>
  <diagram name="滑动窗口 的副本" id="Ii194De5J1IfAa8CEkp_">
    <mxGraphModel dx="846" dy="694" grid="0" gridSize="10" guides="1" tooltips="1" connect="1" arrows="1" fold="1" page="1" pageScale="1" pageWidth="827" pageHeight="1169" background="#001f18" math="0" shadow="0">
      <root>
        <mxCell id="HekGsIPc4GxuJa2XuSc--0" />
        <mxCell id="HekGsIPc4GxuJa2XuSc--1" parent="HekGsIPc4GxuJa2XuSc--0" />
        <mxCell id="HekGsIPc4GxuJa2XuSc--13" value="" style="endArrow=none;html=1;rounded=0;fontSize=20;strokeWidth=2;fillColor=#ffcc99;strokeColor=#efae5a;entryX=0.5;entryY=1;entryDx=0;entryDy=0;" edge="1" parent="HekGsIPc4GxuJa2XuSc--1" target="HekGsIPc4GxuJa2XuSc--14">
          <mxGeometry width="50" height="50" relative="1" as="geometry">
            <mxPoint x="472.5" y="517" as="sourcePoint" />
            <mxPoint x="472.5" y="187" as="targetPoint" />
          </mxGeometry>
        </mxCell>
        <mxCell id="HekGsIPc4GxuJa2XuSc--14" value="Sender" style="rounded=1;whiteSpace=wrap;html=1;fontSize=20;strokeColor=none;fillColor=none;strokeWidth=2;fontColor=#FFFFFF;" vertex="1" parent="HekGsIPc4GxuJa2XuSc--1">
          <mxGeometry x="433" y="187" width="80" height="40" as="geometry" />
        </mxCell>
        <mxCell id="HekGsIPc4GxuJa2XuSc--15" value="Receiver" style="rounded=1;whiteSpace=wrap;html=1;fontSize=20;strokeColor=none;fillColor=none;strokeWidth=2;fontColor=#FFFFFF;" vertex="1" parent="HekGsIPc4GxuJa2XuSc--1">
          <mxGeometry x="720" y="190" width="80" height="40" as="geometry" />
        </mxCell>
        <mxCell id="HekGsIPc4GxuJa2XuSc--16" value="" style="endArrow=none;html=1;rounded=0;fontSize=20;strokeWidth=2;strokeColor=#02db21;" edge="1" parent="HekGsIPc4GxuJa2XuSc--1">
          <mxGeometry width="50" height="50" relative="1" as="geometry">
            <mxPoint x="760" y="520" as="sourcePoint" />
            <mxPoint x="760" y="230" as="targetPoint" />
          </mxGeometry>
        </mxCell>
        <mxCell id="HekGsIPc4GxuJa2XuSc--17" value="" style="endArrow=classic;html=1;rounded=0;fontSize=20;strokeWidth=2;fillColor=#b1ddf0;strokeColor=#52d1e6;fontColor=#FFFFFF;" edge="1" parent="HekGsIPc4GxuJa2XuSc--1">
          <mxGeometry width="50" height="50" relative="1" as="geometry">
            <mxPoint x="473" y="250" as="sourcePoint" />
            <mxPoint x="759" y="279" as="targetPoint" />
          </mxGeometry>
        </mxCell>
        <mxCell id="tVW3FcFW4bRq8Jr6bg8D-0" value="Data packet" style="rounded=1;whiteSpace=wrap;html=1;fontSize=16;strokeColor=none;fillColor=none;strokeWidth=2;fontColor=#FFFFFF;" vertex="1" parent="HekGsIPc4GxuJa2XuSc--1">
          <mxGeometry x="573" y="234" width="136" height="40" as="geometry" />
        </mxCell>
        <mxCell id="tVW3FcFW4bRq8Jr6bg8D-2" value="" style="endArrow=classic;html=1;rounded=0;fontSize=20;strokeWidth=2;fillColor=#b1ddf0;strokeColor=#52d1e6;fontColor=#FFFFFF;" edge="1" parent="HekGsIPc4GxuJa2XuSc--1">
          <mxGeometry width="50" height="50" relative="1" as="geometry">
            <mxPoint x="759" y="280.9999999999998" as="sourcePoint" />
            <mxPoint x="473" y="309.9999999999998" as="targetPoint" />
          </mxGeometry>
        </mxCell>
        <mxCell id="tVW3FcFW4bRq8Jr6bg8D-3" value="Acknowledgement" style="rounded=1;whiteSpace=wrap;html=1;fontSize=16;strokeColor=none;fillColor=none;strokeWidth=2;fontColor=#FFFFFF;" vertex="1" parent="HekGsIPc4GxuJa2XuSc--1">
          <mxGeometry x="508" y="261" width="136" height="40" as="geometry" />
        </mxCell>
        <mxCell id="tVW3FcFW4bRq8Jr6bg8D-4" value="" style="endArrow=classic;html=1;rounded=0;fontSize=20;strokeWidth=2;fillColor=#b1ddf0;strokeColor=#52d1e6;fontColor=#FFFFFF;" edge="1" parent="HekGsIPc4GxuJa2XuSc--1">
          <mxGeometry width="50" height="50" relative="1" as="geometry">
            <mxPoint x="473" y="250" as="sourcePoint" />
            <mxPoint x="759" y="278.9999999999999" as="targetPoint" />
          </mxGeometry>
        </mxCell>
        <mxCell id="tVW3FcFW4bRq8Jr6bg8D-5" value="" style="endArrow=classic;html=1;rounded=0;fontSize=20;strokeWidth=2;fillColor=#b1ddf0;strokeColor=#52d1e6;fontColor=#FFFFFF;" edge="1" parent="HekGsIPc4GxuJa2XuSc--1">
          <mxGeometry width="50" height="50" relative="1" as="geometry">
            <mxPoint x="475" y="313" as="sourcePoint" />
            <mxPoint x="761" y="341.9999999999999" as="targetPoint" />
          </mxGeometry>
        </mxCell>
        <mxCell id="tVW3FcFW4bRq8Jr6bg8D-7" value="Data packet" style="rounded=1;whiteSpace=wrap;html=1;fontSize=16;strokeColor=none;fillColor=none;strokeWidth=2;fontColor=#FFFFFF;" vertex="1" parent="HekGsIPc4GxuJa2XuSc--1">
          <mxGeometry x="573" y="296" width="136" height="40" as="geometry" />
        </mxCell>
        <mxCell id="tVW3FcFW4bRq8Jr6bg8D-8" value="" style="sketch=0;pointerEvents=1;shadow=0;dashed=0;html=1;strokeColor=none;fillColor=#FFFFFF;labelPosition=center;verticalLabelPosition=bottom;verticalAlign=top;outlineConnect=0;align=center;shape=mxgraph.office.concepts.clock;fontSize=16;fontColor=#FFFFFF;" vertex="1" parent="HekGsIPc4GxuJa2XuSc--1">
          <mxGeometry x="437" y="346" width="31" height="31" as="geometry" />
        </mxCell>
        <mxCell id="tVW3FcFW4bRq8Jr6bg8D-9" value="" style="endArrow=classic;html=1;rounded=0;fontSize=20;strokeWidth=2;fillColor=#b1ddf0;strokeColor=#52d1e6;fontColor=#FFFFFF;" edge="1" parent="HekGsIPc4GxuJa2XuSc--1">
          <mxGeometry width="50" height="50" relative="1" as="geometry">
            <mxPoint x="475" y="312.9999999999999" as="sourcePoint" />
            <mxPoint x="761" y="341.9999999999999" as="targetPoint" />
          </mxGeometry>
        </mxCell>
        <mxCell id="tVW3FcFW4bRq8Jr6bg8D-10" value="" style="endArrow=classic;html=1;rounded=0;fontSize=20;strokeWidth=2;fillColor=#b1ddf0;strokeColor=#52d1e6;fontColor=#FFFFFF;" edge="1" parent="HekGsIPc4GxuJa2XuSc--1">
          <mxGeometry width="50" height="50" relative="1" as="geometry">
            <mxPoint x="474" y="405.9999999999999" as="sourcePoint" />
            <mxPoint x="760" y="434.9999999999999" as="targetPoint" />
          </mxGeometry>
        </mxCell>
        <mxCell id="tVW3FcFW4bRq8Jr6bg8D-11" value="Data packet" style="rounded=1;whiteSpace=wrap;html=1;fontSize=16;strokeColor=none;fillColor=none;strokeWidth=2;fontColor=#FFFFFF;" vertex="1" parent="HekGsIPc4GxuJa2XuSc--1">
          <mxGeometry x="571" y="384" width="136" height="40" as="geometry" />
        </mxCell>
        <mxCell id="tVW3FcFW4bRq8Jr6bg8D-12" value="" style="endArrow=classic;html=1;rounded=0;fontSize=20;strokeWidth=2;fillColor=#b1ddf0;strokeColor=#52d1e6;fontColor=#FFFFFF;" edge="1" parent="HekGsIPc4GxuJa2XuSc--1">
          <mxGeometry width="50" height="50" relative="1" as="geometry">
            <mxPoint x="759" y="438.99999999999966" as="sourcePoint" />
            <mxPoint x="473" y="467.9999999999999" as="targetPoint" />
          </mxGeometry>
        </mxCell>
        <mxCell id="tVW3FcFW4bRq8Jr6bg8D-13" value="Acknowledgement" style="rounded=1;whiteSpace=wrap;html=1;fontSize=16;strokeColor=none;fillColor=none;strokeWidth=2;fontColor=#FFFFFF;" vertex="1" parent="HekGsIPc4GxuJa2XuSc--1">
          <mxGeometry x="508" y="421" width="136" height="40" as="geometry" />
        </mxCell>
        <mxCell id="tVW3FcFW4bRq8Jr6bg8D-14" value="Timer Times&lt;br&gt;Out" style="rounded=1;whiteSpace=wrap;html=1;fontSize=16;strokeColor=none;fillColor=none;strokeWidth=2;fontColor=#FFFFFF;" vertex="1" parent="HekGsIPc4GxuJa2XuSc--1">
          <mxGeometry x="342" y="341.5" width="95" height="40" as="geometry" />
        </mxCell>
      </root>
    </mxGraphModel>
  </diagram>
  <diagram id="DLyiYzu7poZRW7_zd2J4" name="第 2 页">
    <mxGraphModel dx="860" dy="694" grid="0" gridSize="10" guides="1" tooltips="1" connect="1" arrows="1" fold="1" page="1" pageScale="1" pageWidth="827" pageHeight="1169" math="0" shadow="0">
      <root>
        <mxCell id="0" />
        <mxCell id="1" parent="0" />
      </root>
    </mxGraphModel>
  </diagram>
</mxfile>
